<svg xmlns="http://www.w3.org/2000/svg" version="1.1" xmlns:xlink="http://www.w3.org/1999/xlink" xmlns:svgjs="http://svgjs.com/svgjs" width="1440" height="560" preserveAspectRatio="none" viewBox="0 0 1440 560"><g mask="url(&quot;#SvgjsMask1006&quot;)" fill="none"><g><path d="M202.5 67.5L262.5 67.5L322.5 7.5L337.5 7.5L487.5 157.5" stroke-width="2.5" stroke="rgba(235, 235, 235, 0.5)"></path><path d="M200 67.5 a2.5 2.5 0 1 0 5 0 a2.5 2.5 0 1 0 -5 0zM485 157.5 a2.5 2.5 0 1 0 5 0 a2.5 2.5 0 1 0 -5 0z" fill="rgba(235, 235, 235, 0.5)"></path><path d="M562.5 22.5L847.5 22.5" stroke-width="2.5" stroke="rgba(235, 235, 235, 0.5)"></path><path d="M560 22.5 a2.5 2.5 0 1 0 5 0 a2.5 2.5 0 1 0 -5 0zM845 22.5 a2.5 2.5 0 1 0 5 0 a2.5 2.5 0 1 0 -5 0z" fill="rgba(235, 235, 235, 0.5)"></path><path d="M1087.5 547.5L1207.5 547.5L1222.5 562.5L1327.5 562.5L1372.5 517.5" stroke-width="2.5" stroke="rgba(235, 235, 235, 0.5)"></path><path d="M1085 547.5 a2.5 2.5 0 1 0 5 0 a2.5 2.5 0 1 0 -5 0zM1370 517.5 a2.5 2.5 0 1 0 5 0 a2.5 2.5 0 1 0 -5 0z" fill="rgba(235, 235, 235, 0.5)"></path><path d="M652.5 412.5L622.5 382.5L472.5 382.5L367.5 277.5" stroke-width="2.5" stroke="rgba(235, 235, 235, 0.5)"></path><path d="M650 412.5 a2.5 2.5 0 1 0 5 0 a2.5 2.5 0 1 0 -5 0zM365 277.5 a2.5 2.5 0 1 0 5 0 a2.5 2.5 0 1 0 -5 0z" fill="rgba(235, 235, 235, 0.5)"></path><path d="M322.5 517.5L457.5 382.5" stroke-width="2.5" stroke="rgba(235, 235, 235, 0.5)"></path><path d="M320 517.5 a2.5 2.5 0 1 0 5 0 a2.5 2.5 0 1 0 -5 0zM455 382.5 a2.5 2.5 0 1 0 5 0 a2.5 2.5 0 1 0 -5 0z" fill="rgba(235, 235, 235, 0.5)"></path><path d="M1012.5 517.5L1012.5 532.5L1042.5 562.5L1207.5 562.5" stroke-width="2.5" stroke="rgba(235, 235, 235, 0.5)"></path><path d="M1010 517.5 a2.5 2.5 0 1 0 5 0 a2.5 2.5 0 1 0 -5 0zM1205 562.5 a2.5 2.5 0 1 0 5 0 a2.5 2.5 0 1 0 -5 0z" fill="rgba(235, 235, 235, 0.5)"></path><path d="M1177.5 7.5L1177.5 112.5L1087.5 202.5L997.5 202.5" stroke-width="2.5" stroke="rgba(235, 235, 235, 0.5)"></path><path d="M1175 7.5 a2.5 2.5 0 1 0 5 0 a2.5 2.5 0 1 0 -5 0zM995 202.5 a2.5 2.5 0 1 0 5 0 a2.5 2.5 0 1 0 -5 0z" fill="rgba(235, 235, 235, 0.5)"></path><path d="M7.5 427.5L7.5 247.5L22.5 232.5L22.5 142.5" stroke-width="2.5" stroke="rgba(235, 235, 235, 0.5)"></path><path d="M5 427.5 a2.5 2.5 0 1 0 5 0 a2.5 2.5 0 1 0 -5 0zM20 142.5 a2.5 2.5 0 1 0 5 0 a2.5 2.5 0 1 0 -5 0z" fill="rgba(235, 235, 235, 0.5)"></path><path d="M1387.5 322.5L1432.5 277.5L1432.5 37.5" stroke-width="2.5" stroke="rgba(235, 235, 235, 0.5)"></path><path d="M1385 322.5 a2.5 2.5 0 1 0 5 0 a2.5 2.5 0 1 0 -5 0zM1430 37.5 a2.5 2.5 0 1 0 5 0 a2.5 2.5 0 1 0 -5 0z" fill="rgba(235, 235, 235, 0.5)"></path><path d="M172.5 337.5L367.5 337.5L427.5 397.5" stroke-width="2.5" stroke="rgba(235, 235, 235, 0.5)"></path><path d="M170 337.5 a2.5 2.5 0 1 0 5 0 a2.5 2.5 0 1 0 -5 0zM425 397.5 a2.5 2.5 0 1 0 5 0 a2.5 2.5 0 1 0 -5 0z" fill="rgba(235, 235, 235, 0.5)"></path><path d="M202.5 472.5L112.5 382.5L22.5 382.5" stroke-width="2.5" stroke="rgba(235, 235, 235, 0.5)"></path><path d="M200 472.5 a2.5 2.5 0 1 0 5 0 a2.5 2.5 0 1 0 -5 0zM20 382.5 a2.5 2.5 0 1 0 5 0 a2.5 2.5 0 1 0 -5 0z" fill="rgba(235, 235, 235, 0.5)"></path><path d="M1357.5 217.5L1417.5 277.5" stroke-width="2.5" stroke="rgba(235, 235, 235, 0.5)"></path><path d="M1355 217.5 a2.5 2.5 0 1 0 5 0 a2.5 2.5 0 1 0 -5 0zM1415 277.5 a2.5 2.5 0 1 0 5 0 a2.5 2.5 0 1 0 -5 0z" fill="rgba(235, 235, 235, 0.5)"></path><path d="M472.5 112.5L502.5 112.5L547.5 157.5L547.5 292.5L577.5 322.5L577.5 337.5L607.5 367.5" stroke-width="2.5" stroke="rgba(235, 235, 235, 0.5)"></path><path d="M470 112.5 a2.5 2.5 0 1 0 5 0 a2.5 2.5 0 1 0 -5 0zM605 367.5 a2.5 2.5 0 1 0 5 0 a2.5 2.5 0 1 0 -5 0z" fill="rgba(235, 235, 235, 0.5)"></path><path d="M1252.5 337.5L1237.5 337.5L1072.5 502.5L967.5 502.5" stroke-width="2.5" stroke="rgba(235, 235, 235, 0.5)"></path><path d="M1250 337.5 a2.5 2.5 0 1 0 5 0 a2.5 2.5 0 1 0 -5 0zM965 502.5 a2.5 2.5 0 1 0 5 0 a2.5 2.5 0 1 0 -5 0z" fill="rgba(235, 235, 235, 0.5)"></path><path d="M562.5 517.5L562.5 442.5L517.5 397.5L487.5 397.5L352.5 532.5" stroke-width="2.5" stroke="rgba(235, 235, 235, 0.5)"></path><path d="M560 517.5 a2.5 2.5 0 1 0 5 0 a2.5 2.5 0 1 0 -5 0zM350 532.5 a2.5 2.5 0 1 0 5 0 a2.5 2.5 0 1 0 -5 0z" fill="rgba(235, 235, 235, 0.5)"></path><path d="M1237.5 7.5L1237.5 127.5L1252.5 142.5L1327.5 142.5L1372.5 187.5L1372.5 217.5" stroke-width="2.5" stroke="rgba(235, 235, 235, 0.5)"></path><path d="M1235 7.5 a2.5 2.5 0 1 0 5 0 a2.5 2.5 0 1 0 -5 0zM1370 217.5 a2.5 2.5 0 1 0 5 0 a2.5 2.5 0 1 0 -5 0z" fill="rgba(235, 235, 235, 0.5)"></path><path d="M952.5 307.5L757.5 112.5L667.5 112.5" stroke-width="2.5" stroke="rgba(235, 235, 235, 0.5)"></path><path d="M950 307.5 a2.5 2.5 0 1 0 5 0 a2.5 2.5 0 1 0 -5 0zM665 112.5 a2.5 2.5 0 1 0 5 0 a2.5 2.5 0 1 0 -5 0z" fill="rgba(235, 235, 235, 0.5)"></path><path d="M1282.5 397.5L1177.5 502.5L1177.5 532.5" stroke-width="2.5" stroke="rgba(235, 235, 235, 0.5)"></path><path d="M1280 397.5 a2.5 2.5 0 1 0 5 0 a2.5 2.5 0 1 0 -5 0zM1175 532.5 a2.5 2.5 0 1 0 5 0 a2.5 2.5 0 1 0 -5 0z" fill="rgba(235, 235, 235, 0.5)"></path><path d="M937.5 157.5L1012.5 157.5L1042.5 187.5L1087.5 187.5L1162.5 112.5L1162.5 52.5" stroke-width="2.5" stroke="rgba(235, 235, 235, 0.5)"></path><path d="M935 157.5 a2.5 2.5 0 1 0 5 0 a2.5 2.5 0 1 0 -5 0zM1160 52.5 a2.5 2.5 0 1 0 5 0 a2.5 2.5 0 1 0 -5 0z" fill="rgba(235, 235, 235, 0.5)"></path><path d="M922.5 517.5L907.5 502.5L907.5 457.5L742.5 292.5L682.5 292.5" stroke-width="2.5" stroke="rgba(235, 235, 235, 0.5)"></path><path d="M920 517.5 a2.5 2.5 0 1 0 5 0 a2.5 2.5 0 1 0 -5 0zM680 292.5 a2.5 2.5 0 1 0 5 0 a2.5 2.5 0 1 0 -5 0z" fill="rgba(235, 235, 235, 0.5)"></path><path d="M637.5 532.5L682.5 487.5L802.5 487.5L832.5 517.5L832.5 562.5" stroke-width="2.5" stroke="rgba(235, 235, 235, 0.5)"></path><path d="M635 532.5 a2.5 2.5 0 1 0 5 0 a2.5 2.5 0 1 0 -5 0zM830 562.5 a2.5 2.5 0 1 0 5 0 a2.5 2.5 0 1 0 -5 0z" fill="rgba(235, 235, 235, 0.5)"></path><path d="M1222.5 37.5L1192.5 37.5" stroke-width="2.5" stroke="rgba(235, 235, 235, 0.5)"></path><path d="M1220 37.5 a2.5 2.5 0 1 0 5 0 a2.5 2.5 0 1 0 -5 0zM1190 37.5 a2.5 2.5 0 1 0 5 0 a2.5 2.5 0 1 0 -5 0z" fill="rgba(235, 235, 235, 0.5)"></path><path d="M1267.5 277.5L1402.5 277.5" stroke-width="2.5" stroke="rgba(235, 235, 235, 0.5)"></path><path d="M1265 277.5 a2.5 2.5 0 1 0 5 0 a2.5 2.5 0 1 0 -5 0zM1400 277.5 a2.5 2.5 0 1 0 5 0 a2.5 2.5 0 1 0 -5 0z" fill="rgba(235, 235, 235, 0.5)"></path><path d="M682.5 277.5L682.5 142.5L577.5 37.5L532.5 37.5" stroke-width="2.5" stroke="rgba(235, 235, 235, 0.5)"></path><path d="M680 277.5 a2.5 2.5 0 1 0 5 0 a2.5 2.5 0 1 0 -5 0zM530 37.5 a2.5 2.5 0 1 0 5 0 a2.5 2.5 0 1 0 -5 0z" fill="rgba(235, 235, 235, 0.5)"></path><path d="M1342.5 562.5L1432.5 472.5L1432.5 397.5L1417.5 382.5L1417.5 307.5L1432.5 292.5" stroke-width="2.5" stroke="rgba(235, 235, 235, 0.5)"></path><path d="M1340 562.5 a2.5 2.5 0 1 0 5 0 a2.5 2.5 0 1 0 -5 0zM1430 292.5 a2.5 2.5 0 1 0 5 0 a2.5 2.5 0 1 0 -5 0z" fill="rgba(235, 235, 235, 0.5)"></path><path d="M1162.5 322.5L1192.5 352.5L1207.5 352.5L1252.5 307.5L1252.5 292.5L1177.5 217.5L1072.5 217.5" stroke-width="2.5" stroke="rgba(235, 235, 235, 0.5)"></path><path d="M1160 322.5 a2.5 2.5 0 1 0 5 0 a2.5 2.5 0 1 0 -5 0zM1070 217.5 a2.5 2.5 0 1 0 5 0 a2.5 2.5 0 1 0 -5 0z" fill="rgba(235, 235, 235, 0.5)"></path><path d="M352.5 157.5L412.5 97.5" stroke-width="2.5" stroke="rgba(235, 235, 235, 0.5)"></path><path d="M350 157.5 a2.5 2.5 0 1 0 5 0 a2.5 2.5 0 1 0 -5 0zM410 97.5 a2.5 2.5 0 1 0 5 0 a2.5 2.5 0 1 0 -5 0z" fill="rgba(235, 235, 235, 0.5)"></path><path d="M472.5 322.5L532.5 262.5L532.5 157.5L502.5 127.5L472.5 127.5" stroke-width="2.5" stroke="rgba(235, 235, 235, 0.5)"></path><path d="M470 322.5 a2.5 2.5 0 1 0 5 0 a2.5 2.5 0 1 0 -5 0zM470 127.5 a2.5 2.5 0 1 0 5 0 a2.5 2.5 0 1 0 -5 0z" fill="rgba(235, 235, 235, 0.5)"></path><path d="M787.5 547.5L802.5 562.5L817.5 562.5" stroke-width="2.5" stroke="rgba(235, 235, 235, 0.5)"></path><path d="M785 547.5 a2.5 2.5 0 1 0 5 0 a2.5 2.5 0 1 0 -5 0zM815 562.5 a2.5 2.5 0 1 0 5 0 a2.5 2.5 0 1 0 -5 0z" fill="rgba(235, 235, 235, 0.5)"></path><path d="M367.5 352.5L112.5 352.5L97.5 367.5L82.5 367.5" stroke-width="2.5" stroke="rgba(235, 235, 235, 0.5)"></path><path d="M365 352.5 a2.5 2.5 0 1 0 5 0 a2.5 2.5 0 1 0 -5 0zM80 367.5 a2.5 2.5 0 1 0 5 0 a2.5 2.5 0 1 0 -5 0z" fill="rgba(235, 235, 235, 0.5)"></path><path d="M637.5 202.5L592.5 247.5L562.5 247.5" stroke-width="2.5" stroke="rgba(235, 235, 235, 0.5)"></path><path d="M635 202.5 a2.5 2.5 0 1 0 5 0 a2.5 2.5 0 1 0 -5 0zM560 247.5 a2.5 2.5 0 1 0 5 0 a2.5 2.5 0 1 0 -5 0z" fill="rgba(235, 235, 235, 0.5)"></path><path d="M637.5 382.5L637.5 337.5L562.5 262.5" stroke-width="2.5" stroke="rgba(235, 235, 235, 0.5)"></path><path d="M635 382.5 a2.5 2.5 0 1 0 5 0 a2.5 2.5 0 1 0 -5 0zM560 262.5 a2.5 2.5 0 1 0 5 0 a2.5 2.5 0 1 0 -5 0z" fill="rgba(235, 235, 235, 0.5)"></path><path d="M112.5 487.5L7.5 487.5" stroke-width="2.5" stroke="rgba(235, 235, 235, 0.5)"></path><path d="M110 487.5 a2.5 2.5 0 1 0 5 0 a2.5 2.5 0 1 0 -5 0zM5 487.5 a2.5 2.5 0 1 0 5 0 a2.5 2.5 0 1 0 -5 0z" fill="rgba(235, 235, 235, 0.5)"></path><path d="M1072.5 442.5L1072.5 322.5L1132.5 262.5L1207.5 262.5L1237.5 292.5" stroke-width="2.5" stroke="rgba(235, 235, 235, 0.5)"></path><path d="M1070 442.5 a2.5 2.5 0 1 0 5 0 a2.5 2.5 0 1 0 -5 0zM1235 292.5 a2.5 2.5 0 1 0 5 0 a2.5 2.5 0 1 0 -5 0z" fill="rgba(235, 235, 235, 0.5)"></path><path d="M1192.5 112.5L1192.5 82.5L1207.5 67.5L1207.5 52.5" stroke-width="2.5" stroke="rgba(235, 235, 235, 0.5)"></path><path d="M1190 112.5 a2.5 2.5 0 1 0 5 0 a2.5 2.5 0 1 0 -5 0zM1205 52.5 a2.5 2.5 0 1 0 5 0 a2.5 2.5 0 1 0 -5 0z" fill="rgba(235, 235, 235, 0.5)"></path><path d="M1387.5 127.5L1327.5 67.5L1252.5 67.5" stroke-width="2.5" stroke="rgba(235, 235, 235, 0.5)"></path><path d="M1385 127.5 a2.5 2.5 0 1 0 5 0 a2.5 2.5 0 1 0 -5 0zM1250 67.5 a2.5 2.5 0 1 0 5 0 a2.5 2.5 0 1 0 -5 0z" fill="rgba(235, 235, 235, 0.5)"></path><path d="M892.5 112.5L817.5 37.5L712.5 37.5L652.5 97.5" stroke-width="2.5" stroke="rgba(235, 235, 235, 0.5)"></path><path d="M890 112.5 a2.5 2.5 0 1 0 5 0 a2.5 2.5 0 1 0 -5 0zM650 97.5 a2.5 2.5 0 1 0 5 0 a2.5 2.5 0 1 0 -5 0z" fill="rgba(235, 235, 235, 0.5)"></path><path d="M1417.5 442.5L1312.5 547.5L1252.5 547.5L1207.5 502.5L1192.5 502.5" stroke-width="2.5" stroke="rgba(235, 235, 235, 0.5)"></path><path d="M1415 442.5 a2.5 2.5 0 1 0 5 0 a2.5 2.5 0 1 0 -5 0zM1190 502.5 a2.5 2.5 0 1 0 5 0 a2.5 2.5 0 1 0 -5 0z" fill="rgba(235, 235, 235, 0.5)"></path><path d="M967.5 82.5L1042.5 7.5L1147.5 7.5L1162.5 22.5L1162.5 37.5L1087.5 112.5" stroke-width="2.5" stroke="rgba(235, 235, 235, 0.5)"></path><path d="M965 82.5 a2.5 2.5 0 1 0 5 0 a2.5 2.5 0 1 0 -5 0zM1085 112.5 a2.5 2.5 0 1 0 5 0 a2.5 2.5 0 1 0 -5 0z" fill="rgba(235, 235, 235, 0.5)"></path><path d="M1147.5 337.5L1117.5 307.5L1102.5 307.5L1087.5 322.5L1087.5 472.5L1072.5 487.5L1012.5 487.5" stroke-width="2.5" stroke="rgba(235, 235, 235, 0.5)"></path><path d="M1145 337.5 a2.5 2.5 0 1 0 5 0 a2.5 2.5 0 1 0 -5 0zM1010 487.5 a2.5 2.5 0 1 0 5 0 a2.5 2.5 0 1 0 -5 0z" fill="rgba(235, 235, 235, 0.5)"></path><path d="M232.5 562.5L97.5 562.5L37.5 502.5L7.5 502.5" stroke-width="2.5" stroke="rgba(235, 235, 235, 0.5)"></path><path d="M230 562.5 a2.5 2.5 0 1 0 5 0 a2.5 2.5 0 1 0 -5 0zM5 502.5 a2.5 2.5 0 1 0 5 0 a2.5 2.5 0 1 0 -5 0z" fill="rgba(235, 235, 235, 0.5)"></path><path d="M1357.5 442.5L1267.5 532.5L1252.5 532.5L1207.5 487.5" stroke-width="2.5" stroke="rgba(235, 235, 235, 0.5)"></path><path d="M1355 442.5 a2.5 2.5 0 1 0 5 0 a2.5 2.5 0 1 0 -5 0zM1205 487.5 a2.5 2.5 0 1 0 5 0 a2.5 2.5 0 1 0 -5 0z" fill="rgba(235, 235, 235, 0.5)"></path><path d="M1297.5 202.5L1162.5 202.5L1132.5 172.5" stroke-width="2.5" stroke="rgba(235, 235, 235, 0.5)"></path><path d="M1295 202.5 a2.5 2.5 0 1 0 5 0 a2.5 2.5 0 1 0 -5 0zM1130 172.5 a2.5 2.5 0 1 0 5 0 a2.5 2.5 0 1 0 -5 0z" fill="rgba(235, 235, 235, 0.5)"></path><path d="M427.5 547.5L427.5 502.5L412.5 487.5" stroke-width="2.5" stroke="rgba(235, 235, 235, 0.5)"></path><path d="M425 547.5 a2.5 2.5 0 1 0 5 0 a2.5 2.5 0 1 0 -5 0zM410 487.5 a2.5 2.5 0 1 0 5 0 a2.5 2.5 0 1 0 -5 0z" fill="rgba(235, 235, 235, 0.5)"></path><path d="M82.5 187.5L37.5 187.5" stroke-width="2.5" stroke="rgba(235, 235, 235, 0.5)"></path><path d="M80 187.5 a2.5 2.5 0 1 0 5 0 a2.5 2.5 0 1 0 -5 0zM35 187.5 a2.5 2.5 0 1 0 5 0 a2.5 2.5 0 1 0 -5 0z" fill="rgba(235, 235, 235, 0.5)"></path><path d="M997.5 337.5L1057.5 337.5" stroke-width="2.5" stroke="rgba(235, 235, 235, 0.5)"></path><path d="M995 337.5 a2.5 2.5 0 1 0 5 0 a2.5 2.5 0 1 0 -5 0zM1055 337.5 a2.5 2.5 0 1 0 5 0 a2.5 2.5 0 1 0 -5 0z" fill="rgba(235, 235, 235, 0.5)"></path><path d="M37.5 472.5L7.5 472.5" stroke-width="2.5" stroke="rgba(235, 235, 235, 0.5)"></path><path d="M35 472.5 a2.5 2.5 0 1 0 5 0 a2.5 2.5 0 1 0 -5 0zM5 472.5 a2.5 2.5 0 1 0 5 0 a2.5 2.5 0 1 0 -5 0z" fill="rgba(235, 235, 235, 0.5)"></path><path d="M697.5 502.5L682.5 502.5L622.5 562.5L457.5 562.5L442.5 547.5L442.5 517.5" stroke-width="2.5" stroke="rgba(235, 235, 235, 0.5)"></path><path d="M695 502.5 a2.5 2.5 0 1 0 5 0 a2.5 2.5 0 1 0 -5 0zM440 517.5 a2.5 2.5 0 1 0 5 0 a2.5 2.5 0 1 0 -5 0z" fill="rgba(235, 235, 235, 0.5)"></path><path d="M637.5 247.5L637.5 217.5L667.5 187.5L667.5 172.5L637.5 142.5L562.5 142.5L457.5 37.5" stroke-width="2.5" stroke="rgba(235, 235, 235, 0.5)"></path><path d="M635 247.5 a2.5 2.5 0 1 0 5 0 a2.5 2.5 0 1 0 -5 0zM455 37.5 a2.5 2.5 0 1 0 5 0 a2.5 2.5 0 1 0 -5 0z" fill="rgba(235, 235, 235, 0.5)"></path><path d="M502.5 337.5L502.5 322.5L532.5 292.5L532.5 277.5" stroke-width="2.5" stroke="rgba(235, 235, 235, 0.5)"></path><path d="M500 337.5 a2.5 2.5 0 1 0 5 0 a2.5 2.5 0 1 0 -5 0zM530 277.5 a2.5 2.5 0 1 0 5 0 a2.5 2.5 0 1 0 -5 0z" fill="rgba(235, 235, 235, 0.5)"></path><path d="M847.5 562.5L862.5 562.5L907.5 517.5" stroke-width="2.5" stroke="rgba(235, 235, 235, 0.5)"></path><path d="M845 562.5 a2.5 2.5 0 1 0 5 0 a2.5 2.5 0 1 0 -5 0zM905 517.5 a2.5 2.5 0 1 0 5 0 a2.5 2.5 0 1 0 -5 0z" fill="rgba(235, 235, 235, 0.5)"></path><path d="M892.5 7.5L892.5 37.5L997.5 142.5L1117.5 142.5L1147.5 112.5" stroke-width="2.5" stroke="rgba(235, 235, 235, 0.5)"></path><path d="M890 7.5 a2.5 2.5 0 1 0 5 0 a2.5 2.5 0 1 0 -5 0zM1145 112.5 a2.5 2.5 0 1 0 5 0 a2.5 2.5 0 1 0 -5 0z" fill="rgba(235, 235, 235, 0.5)"></path><path d="M217.5 202.5L217.5 82.5" stroke-width="2.5" stroke="rgba(235, 235, 235, 0.5)"></path><path d="M215 202.5 a2.5 2.5 0 1 0 5 0 a2.5 2.5 0 1 0 -5 0zM215 82.5 a2.5 2.5 0 1 0 5 0 a2.5 2.5 0 1 0 -5 0z" fill="rgba(235, 235, 235, 0.5)"></path><path d="M1417.5 502.5L1417.5 547.5L1432.5 562.5" stroke-width="2.5" stroke="rgba(235, 235, 235, 0.5)"></path><path d="M1415 502.5 a2.5 2.5 0 1 0 5 0 a2.5 2.5 0 1 0 -5 0zM1430 562.5 a2.5 2.5 0 1 0 5 0 a2.5 2.5 0 1 0 -5 0z" fill="rgba(235, 235, 235, 0.5)"></path><path d="M1327.5 397.5L1297.5 397.5L1252.5 352.5L1237.5 352.5L1042.5 547.5" stroke-width="2.5" stroke="rgba(235, 235, 235, 0.5)"></path><path d="M1325 397.5 a2.5 2.5 0 1 0 5 0 a2.5 2.5 0 1 0 -5 0zM1040 547.5 a2.5 2.5 0 1 0 5 0 a2.5 2.5 0 1 0 -5 0z" fill="rgba(235, 235, 235, 0.5)"></path><path d="M1117.5 412.5L1102.5 427.5L1102.5 457.5" stroke-width="2.5" stroke="rgba(235, 235, 235, 0.5)"></path><path d="M1115 412.5 a2.5 2.5 0 1 0 5 0 a2.5 2.5 0 1 0 -5 0zM1100 457.5 a2.5 2.5 0 1 0 5 0 a2.5 2.5 0 1 0 -5 0z" fill="rgba(235, 235, 235, 0.5)"></path><path d="M142.5 37.5L142.5 82.5L202.5 142.5L202.5 322.5" stroke-width="2.5" stroke="rgba(235, 235, 235, 0.5)"></path><path d="M140 37.5 a2.5 2.5 0 1 0 5 0 a2.5 2.5 0 1 0 -5 0zM200 322.5 a2.5 2.5 0 1 0 5 0 a2.5 2.5 0 1 0 -5 0z" fill="rgba(235, 235, 235, 0.5)"></path><path d="M202.5 382.5L217.5 382.5L292.5 457.5L292.5 562.5" stroke-width="2.5" stroke="rgba(235, 235, 235, 0.5)"></path><path d="M200 382.5 a2.5 2.5 0 1 0 5 0 a2.5 2.5 0 1 0 -5 0zM290 562.5 a2.5 2.5 0 1 0 5 0 a2.5 2.5 0 1 0 -5 0z" fill="rgba(235, 235, 235, 0.5)"></path><path d="M1252.5 37.5L1282.5 7.5L1432.5 7.5" stroke-width="2.5" stroke="rgba(235, 235, 235, 0.5)"></path><path d="M1250 37.5 a2.5 2.5 0 1 0 5 0 a2.5 2.5 0 1 0 -5 0zM1430 7.5 a2.5 2.5 0 1 0 5 0 a2.5 2.5 0 1 0 -5 0z" fill="rgba(235, 235, 235, 0.5)"></path><path d="M367.5 22.5L457.5 112.5" stroke-width="2.5" stroke="rgba(235, 235, 235, 0.5)"></path><path d="M365 22.5 a2.5 2.5 0 1 0 5 0 a2.5 2.5 0 1 0 -5 0zM455 112.5 a2.5 2.5 0 1 0 5 0 a2.5 2.5 0 1 0 -5 0z" fill="rgba(235, 235, 235, 0.5)"></path><path d="M1372.5 457.5L1357.5 457.5L1327.5 487.5L1327.5 502.5L1312.5 517.5L1297.5 517.5L1282.5 532.5" stroke-width="2.5" stroke="rgba(235, 235, 235, 0.5)"></path><path d="M1370 457.5 a2.5 2.5 0 1 0 5 0 a2.5 2.5 0 1 0 -5 0zM1280 532.5 a2.5 2.5 0 1 0 5 0 a2.5 2.5 0 1 0 -5 0z" fill="rgba(235, 235, 235, 0.5)"></path><path d="M1102.5 82.5L1147.5 37.5L1147.5 22.5" stroke-width="2.5" stroke="rgba(235, 235, 235, 0.5)"></path><path d="M1100 82.5 a2.5 2.5 0 1 0 5 0 a2.5 2.5 0 1 0 -5 0zM1145 22.5 a2.5 2.5 0 1 0 5 0 a2.5 2.5 0 1 0 -5 0z" fill="rgba(235, 235, 235, 0.5)"></path><path d="M1102.5 277.5L1057.5 322.5L982.5 322.5L817.5 157.5" stroke-width="2.5" stroke="rgba(235, 235, 235, 0.5)"></path><path d="M1100 277.5 a2.5 2.5 0 1 0 5 0 a2.5 2.5 0 1 0 -5 0zM815 157.5 a2.5 2.5 0 1 0 5 0 a2.5 2.5 0 1 0 -5 0z" fill="rgba(235, 235, 235, 0.5)"></path><path d="M952.5 37.5L997.5 37.5L1027.5 7.5" stroke-width="2.5" stroke="rgba(235, 235, 235, 0.5)"></path><path d="M950 37.5 a2.5 2.5 0 1 0 5 0 a2.5 2.5 0 1 0 -5 0zM1025 7.5 a2.5 2.5 0 1 0 5 0 a2.5 2.5 0 1 0 -5 0z" fill="rgba(235, 235, 235, 0.5)"></path><path d="M967.5 472.5L937.5 442.5L937.5 397.5L772.5 232.5L727.5 232.5" stroke-width="2.5" stroke="rgba(235, 235, 235, 0.5)"></path><path d="M965 472.5 a2.5 2.5 0 1 0 5 0 a2.5 2.5 0 1 0 -5 0zM725 232.5 a2.5 2.5 0 1 0 5 0 a2.5 2.5 0 1 0 -5 0z" fill="rgba(235, 235, 235, 0.5)"></path><path d="M427.5 487.5L547.5 487.5" stroke-width="2.5" stroke="rgba(235, 235, 235, 0.5)"></path><path d="M425 487.5 a2.5 2.5 0 1 0 5 0 a2.5 2.5 0 1 0 -5 0zM545 487.5 a2.5 2.5 0 1 0 5 0 a2.5 2.5 0 1 0 -5 0z" fill="rgba(235, 235, 235, 0.5)"></path><path d="M727.5 412.5L802.5 412.5L877.5 487.5L892.5 487.5" stroke-width="2.5" stroke="rgba(235, 235, 235, 0.5)"></path><path d="M725 412.5 a2.5 2.5 0 1 0 5 0 a2.5 2.5 0 1 0 -5 0zM890 487.5 a2.5 2.5 0 1 0 5 0 a2.5 2.5 0 1 0 -5 0z" fill="rgba(235, 235, 235, 0.5)"></path><path d="M1387.5 202.5L1417.5 232.5L1417.5 262.5" stroke-width="2.5" stroke="rgba(235, 235, 235, 0.5)"></path><path d="M1385 202.5 a2.5 2.5 0 1 0 5 0 a2.5 2.5 0 1 0 -5 0zM1415 262.5 a2.5 2.5 0 1 0 5 0 a2.5 2.5 0 1 0 -5 0z" fill="rgba(235, 235, 235, 0.5)"></path><path d="M157.5 277.5L67.5 367.5L22.5 367.5" stroke-width="2.5" stroke="rgba(235, 235, 235, 0.5)"></path><path d="M155 277.5 a2.5 2.5 0 1 0 5 0 a2.5 2.5 0 1 0 -5 0zM20 367.5 a2.5 2.5 0 1 0 5 0 a2.5 2.5 0 1 0 -5 0z" fill="rgba(235, 235, 235, 0.5)"></path><path d="M697.5 412.5L757.5 472.5L847.5 472.5L892.5 517.5" stroke-width="2.5" stroke="rgba(235, 235, 235, 0.5)"></path><path d="M695 412.5 a2.5 2.5 0 1 0 5 0 a2.5 2.5 0 1 0 -5 0zM890 517.5 a2.5 2.5 0 1 0 5 0 a2.5 2.5 0 1 0 -5 0z" fill="rgba(235, 235, 235, 0.5)"></path><path d="M37.5 397.5L112.5 397.5L277.5 562.5" stroke-width="2.5" stroke="rgba(235, 235, 235, 0.5)"></path><path d="M35 397.5 a2.5 2.5 0 1 0 5 0 a2.5 2.5 0 1 0 -5 0zM275 562.5 a2.5 2.5 0 1 0 5 0 a2.5 2.5 0 1 0 -5 0z" fill="rgba(235, 235, 235, 0.5)"></path><path d="M457.5 157.5L412.5 112.5" stroke-width="2.5" stroke="rgba(235, 235, 235, 0.5)"></path><path d="M455 157.5 a2.5 2.5 0 1 0 5 0 a2.5 2.5 0 1 0 -5 0zM410 112.5 a2.5 2.5 0 1 0 5 0 a2.5 2.5 0 1 0 -5 0z" fill="rgba(235, 235, 235, 0.5)"></path><path d="M892.5 277.5L907.5 277.5L967.5 337.5L982.5 337.5L997.5 352.5L1057.5 352.5" stroke-width="2.5" stroke="rgba(235, 235, 235, 0.5)"></path><path d="M890 277.5 a2.5 2.5 0 1 0 5 0 a2.5 2.5 0 1 0 -5 0zM1055 352.5 a2.5 2.5 0 1 0 5 0 a2.5 2.5 0 1 0 -5 0z" fill="rgba(235, 235, 235, 0.5)"></path><path d="M322.5 232.5L352.5 262.5L367.5 262.5L472.5 157.5" stroke-width="2.5" stroke="rgba(235, 235, 235, 0.5)"></path><path d="M320 232.5 a2.5 2.5 0 1 0 5 0 a2.5 2.5 0 1 0 -5 0zM470 157.5 a2.5 2.5 0 1 0 5 0 a2.5 2.5 0 1 0 -5 0z" fill="rgba(235, 235, 235, 0.5)"></path><path d="M727.5 547.5L727.5 502.5" stroke-width="2.5" stroke="rgba(235, 235, 235, 0.5)"></path><path d="M725 547.5 a2.5 2.5 0 1 0 5 0 a2.5 2.5 0 1 0 -5 0zM725 502.5 a2.5 2.5 0 1 0 5 0 a2.5 2.5 0 1 0 -5 0z" fill="rgba(235, 235, 235, 0.5)"></path><path d="M262.5 532.5L217.5 487.5L217.5 397.5" stroke-width="2.5" stroke="rgba(235, 235, 235, 0.5)"></path><path d="M260 532.5 a2.5 2.5 0 1 0 5 0 a2.5 2.5 0 1 0 -5 0zM215 397.5 a2.5 2.5 0 1 0 5 0 a2.5 2.5 0 1 0 -5 0z" fill="rgba(235, 235, 235, 0.5)"></path><path d="M1147.5 397.5L1177.5 367.5L1177.5 352.5L1162.5 337.5" stroke-width="2.5" stroke="rgba(235, 235, 235, 0.5)"></path><path d="M1145 397.5 a2.5 2.5 0 1 0 5 0 a2.5 2.5 0 1 0 -5 0zM1160 337.5 a2.5 2.5 0 1 0 5 0 a2.5 2.5 0 1 0 -5 0z" fill="rgba(235, 235, 235, 0.5)"></path><path d="M817.5 382.5L772.5 337.5L727.5 337.5L682.5 382.5L682.5 412.5L742.5 472.5" stroke-width="2.5" stroke="rgba(235, 235, 235, 0.5)"></path><path d="M815 382.5 a2.5 2.5 0 1 0 5 0 a2.5 2.5 0 1 0 -5 0zM740 472.5 a2.5 2.5 0 1 0 5 0 a2.5 2.5 0 1 0 -5 0z" fill="rgba(235, 235, 235, 0.5)"></path><path d="M1207.5 127.5L1207.5 82.5L1222.5 67.5L1222.5 52.5" stroke-width="2.5" stroke="rgba(235, 235, 235, 0.5)"></path><path d="M1205 127.5 a2.5 2.5 0 1 0 5 0 a2.5 2.5 0 1 0 -5 0zM1220 52.5 a2.5 2.5 0 1 0 5 0 a2.5 2.5 0 1 0 -5 0z" fill="rgba(235, 235, 235, 0.5)"></path><path d="M1297.5 307.5L1387.5 307.5L1402.5 292.5" stroke-width="2.5" stroke="rgba(235, 235, 235, 0.5)"></path><path d="M1295 307.5 a2.5 2.5 0 1 0 5 0 a2.5 2.5 0 1 0 -5 0zM1400 292.5 a2.5 2.5 0 1 0 5 0 a2.5 2.5 0 1 0 -5 0z" fill="rgba(235, 235, 235, 0.5)"></path><path d="M397.5 82.5L367.5 112.5L232.5 112.5" stroke-width="2.5" stroke="rgba(235, 235, 235, 0.5)"></path><path d="M395 82.5 a2.5 2.5 0 1 0 5 0 a2.5 2.5 0 1 0 -5 0zM230 112.5 a2.5 2.5 0 1 0 5 0 a2.5 2.5 0 1 0 -5 0z" fill="rgba(235, 235, 235, 0.5)"></path><path d="M337.5 322.5L217.5 322.5" stroke-width="2.5" stroke="rgba(235, 235, 235, 0.5)"></path><path d="M335 322.5 a2.5 2.5 0 1 0 5 0 a2.5 2.5 0 1 0 -5 0zM215 322.5 a2.5 2.5 0 1 0 5 0 a2.5 2.5 0 1 0 -5 0z" fill="rgba(235, 235, 235, 0.5)"></path><path d="M817.5 292.5L772.5 247.5L697.5 247.5" stroke-width="2.5" stroke="rgba(235, 235, 235, 0.5)"></path><path d="M815 292.5 a2.5 2.5 0 1 0 5 0 a2.5 2.5 0 1 0 -5 0zM695 247.5 a2.5 2.5 0 1 0 5 0 a2.5 2.5 0 1 0 -5 0z" fill="rgba(235, 235, 235, 0.5)"></path><path d="M202.5 412.5L202.5 397.5L172.5 367.5L112.5 367.5" stroke-width="2.5" stroke="rgba(235, 235, 235, 0.5)"></path><path d="M200 412.5 a2.5 2.5 0 1 0 5 0 a2.5 2.5 0 1 0 -5 0zM110 367.5 a2.5 2.5 0 1 0 5 0 a2.5 2.5 0 1 0 -5 0z" fill="rgba(235, 235, 235, 0.5)"></path><path d="M37.5 127.5L7.5 127.5" stroke-width="2.5" stroke="rgba(235, 235, 235, 0.5)"></path><path d="M35 127.5 a2.5 2.5 0 1 0 5 0 a2.5 2.5 0 1 0 -5 0zM5 127.5 a2.5 2.5 0 1 0 5 0 a2.5 2.5 0 1 0 -5 0z" fill="rgba(235, 235, 235, 0.5)"></path><path d="M277.5 277.5L277.5 262.5L262.5 247.5L217.5 247.5" stroke-width="2.5" stroke="rgba(235, 235, 235, 0.5)"></path><path d="M275 277.5 a2.5 2.5 0 1 0 5 0 a2.5 2.5 0 1 0 -5 0zM215 247.5 a2.5 2.5 0 1 0 5 0 a2.5 2.5 0 1 0 -5 0z" fill="rgba(235, 235, 235, 0.5)"></path><path d="M952.5 352.5L952.5 337.5L907.5 292.5L862.5 292.5L787.5 217.5L712.5 217.5L697.5 232.5" stroke-width="2.5" stroke="rgba(235, 235, 235, 0.5)"></path><path d="M950 352.5 a2.5 2.5 0 1 0 5 0 a2.5 2.5 0 1 0 -5 0zM695 232.5 a2.5 2.5 0 1 0 5 0 a2.5 2.5 0 1 0 -5 0z" fill="rgba(235, 235, 235, 0.5)"></path><path d="M937.5 247.5L1012.5 172.5" stroke-width="2.5" stroke="rgba(235, 235, 235, 0.5)"></path><path d="M935 247.5 a2.5 2.5 0 1 0 5 0 a2.5 2.5 0 1 0 -5 0zM1010 172.5 a2.5 2.5 0 1 0 5 0 a2.5 2.5 0 1 0 -5 0z" fill="rgba(235, 235, 235, 0.5)"></path><path d="M277.5 397.5L307.5 367.5L382.5 367.5L412.5 397.5L412.5 412.5L337.5 487.5L307.5 487.5" stroke-width="2.5" stroke="rgba(235, 235, 235, 0.5)"></path><path d="M275 397.5 a2.5 2.5 0 1 0 5 0 a2.5 2.5 0 1 0 -5 0zM305 487.5 a2.5 2.5 0 1 0 5 0 a2.5 2.5 0 1 0 -5 0z" fill="rgba(235, 235, 235, 0.5)"></path><path d="M22.5 322.5L22.5 307.5L127.5 202.5L187.5 202.5" stroke-width="2.5" stroke="rgba(235, 235, 235, 0.5)"></path><path d="M20 322.5 a2.5 2.5 0 1 0 5 0 a2.5 2.5 0 1 0 -5 0zM185 202.5 a2.5 2.5 0 1 0 5 0 a2.5 2.5 0 1 0 -5 0z" fill="rgba(235, 235, 235, 0.5)"></path><path d="M427.5 427.5L427.5 442.5L412.5 457.5L397.5 457.5L307.5 547.5L307.5 562.5" stroke-width="2.5" stroke="rgba(235, 235, 235, 0.5)"></path><path d="M425 427.5 a2.5 2.5 0 1 0 5 0 a2.5 2.5 0 1 0 -5 0zM305 562.5 a2.5 2.5 0 1 0 5 0 a2.5 2.5 0 1 0 -5 0z" fill="rgba(235, 235, 235, 0.5)"></path><path d="M892.5 322.5L892.5 337.5L922.5 367.5L1057.5 367.5" stroke-width="2.5" stroke="rgba(235, 235, 235, 0.5)"></path><path d="M890 322.5 a2.5 2.5 0 1 0 5 0 a2.5 2.5 0 1 0 -5 0zM1055 367.5 a2.5 2.5 0 1 0 5 0 a2.5 2.5 0 1 0 -5 0z" fill="rgba(235, 235, 235, 0.5)"></path><path d="M787.5 532.5L802.5 547.5L817.5 547.5" stroke-width="2.5" stroke="rgba(235, 235, 235, 0.5)"></path><path d="M785 532.5 a2.5 2.5 0 1 0 5 0 a2.5 2.5 0 1 0 -5 0zM815 547.5 a2.5 2.5 0 1 0 5 0 a2.5 2.5 0 1 0 -5 0z" fill="rgba(235, 235, 235, 0.5)"></path><path d="M742.5 7.5L877.5 7.5" stroke-width="2.5" stroke="rgba(235, 235, 235, 0.5)"></path><path d="M740 7.5 a2.5 2.5 0 1 0 5 0 a2.5 2.5 0 1 0 -5 0zM875 7.5 a2.5 2.5 0 1 0 5 0 a2.5 2.5 0 1 0 -5 0z" fill="rgba(235, 235, 235, 0.5)"></path><path d="M7.5 82.5L112.5 187.5L112.5 202.5L22.5 292.5" stroke-width="2.5" stroke="rgba(235, 235, 235, 0.5)"></path><path d="M5 82.5 a2.5 2.5 0 1 0 5 0 a2.5 2.5 0 1 0 -5 0zM20 292.5 a2.5 2.5 0 1 0 5 0 a2.5 2.5 0 1 0 -5 0z" fill="rgba(235, 235, 235, 0.5)"></path><path d="M352.5 172.5L397.5 127.5L412.5 127.5L442.5 157.5L442.5 172.5L367.5 247.5L352.5 247.5L262.5 157.5" stroke-width="2.5" stroke="rgba(235, 235, 235, 0.5)"></path><path d="M350 172.5 a2.5 2.5 0 1 0 5 0 a2.5 2.5 0 1 0 -5 0zM260 157.5 a2.5 2.5 0 1 0 5 0 a2.5 2.5 0 1 0 -5 0z" fill="rgba(235, 235, 235, 0.5)"></path><path d="M727.5 67.5L727.5 97.5" stroke-width="2.5" stroke="rgba(235, 235, 235, 0.5)"></path><path d="M725 67.5 a2.5 2.5 0 1 0 5 0 a2.5 2.5 0 1 0 -5 0zM725 97.5 a2.5 2.5 0 1 0 5 0 a2.5 2.5 0 1 0 -5 0z" fill="rgba(235, 235, 235, 0.5)"></path><path d="M157.5 142.5L82.5 142.5L7.5 67.5L7.5 7.5" stroke-width="2.5" stroke="rgba(235, 235, 235, 0.5)"></path><path d="M155 142.5 a2.5 2.5 0 1 0 5 0 a2.5 2.5 0 1 0 -5 0zM5 7.5 a2.5 2.5 0 1 0 5 0 a2.5 2.5 0 1 0 -5 0z" fill="rgba(235, 235, 235, 0.5)"></path><path d="M1087.5 277.5L1057.5 307.5L1042.5 307.5L967.5 232.5" stroke-width="2.5" stroke="rgba(235, 235, 235, 0.5)"></path><path d="M1085 277.5 a2.5 2.5 0 1 0 5 0 a2.5 2.5 0 1 0 -5 0zM965 232.5 a2.5 2.5 0 1 0 5 0 a2.5 2.5 0 1 0 -5 0z" fill="rgba(235, 235, 235, 0.5)"></path><path d="M367.5 232.5L367.5 217.5L397.5 187.5L412.5 187.5L427.5 172.5L427.5 157.5L412.5 142.5L397.5 142.5L337.5 202.5L337.5 217.5L352.5 232.5" stroke-width="2.5" stroke="rgba(235, 235, 235, 0.5)"></path><path d="M365 232.5 a2.5 2.5 0 1 0 5 0 a2.5 2.5 0 1 0 -5 0zM350 232.5 a2.5 2.5 0 1 0 5 0 a2.5 2.5 0 1 0 -5 0z" fill="rgba(235, 235, 235, 0.5)"></path><path d="M607.5 82.5L667.5 142.5" stroke-width="2.5" stroke="rgba(235, 235, 235, 0.5)"></path><path d="M605 82.5 a2.5 2.5 0 1 0 5 0 a2.5 2.5 0 1 0 -5 0zM665 142.5 a2.5 2.5 0 1 0 5 0 a2.5 2.5 0 1 0 -5 0z" fill="rgba(235, 235, 235, 0.5)"></path><path d="M712.5 142.5L712.5 202.5L697.5 217.5" stroke-width="2.5" stroke="rgba(235, 235, 235, 0.5)"></path><path d="M710 142.5 a2.5 2.5 0 1 0 5 0 a2.5 2.5 0 1 0 -5 0zM695 217.5 a2.5 2.5 0 1 0 5 0 a2.5 2.5 0 1 0 -5 0z" fill="rgba(235, 235, 235, 0.5)"></path><path d="M367.5 547.5L337.5 547.5L322.5 562.5" stroke-width="2.5" stroke="rgba(235, 235, 235, 0.5)"></path><path d="M365 547.5 a2.5 2.5 0 1 0 5 0 a2.5 2.5 0 1 0 -5 0zM320 562.5 a2.5 2.5 0 1 0 5 0 a2.5 2.5 0 1 0 -5 0z" fill="rgba(235, 235, 235, 0.5)"></path><path d="M967.5 7.5L922.5 52.5" stroke-width="2.5" stroke="rgba(235, 235, 235, 0.5)"></path><path d="M965 7.5 a2.5 2.5 0 1 0 5 0 a2.5 2.5 0 1 0 -5 0zM920 52.5 a2.5 2.5 0 1 0 5 0 a2.5 2.5 0 1 0 -5 0z" fill="rgba(235, 235, 235, 0.5)"></path><path d="M592.5 127.5L562.5 127.5L517.5 82.5L517.5 7.5" stroke-width="2.5" stroke="rgba(235, 235, 235, 0.5)"></path><path d="M590 127.5 a2.5 2.5 0 1 0 5 0 a2.5 2.5 0 1 0 -5 0zM515 7.5 a2.5 2.5 0 1 0 5 0 a2.5 2.5 0 1 0 -5 0z" fill="rgba(235, 235, 235, 0.5)"></path><path d="M622.5 172.5L562.5 232.5" stroke-width="2.5" stroke="rgba(235, 235, 235, 0.5)"></path><path d="M620 172.5 a2.5 2.5 0 1 0 5 0 a2.5 2.5 0 1 0 -5 0zM560 232.5 a2.5 2.5 0 1 0 5 0 a2.5 2.5 0 1 0 -5 0z" fill="rgba(235, 235, 235, 0.5)"></path><path d="M322.5 52.5L307.5 67.5L307.5 97.5" stroke-width="2.5" stroke="rgba(235, 235, 235, 0.5)"></path><path d="M320 52.5 a2.5 2.5 0 1 0 5 0 a2.5 2.5 0 1 0 -5 0zM305 97.5 a2.5 2.5 0 1 0 5 0 a2.5 2.5 0 1 0 -5 0z" fill="rgba(235, 235, 235, 0.5)"></path><path d="M427.5 22.5L412.5 22.5L397.5 7.5L352.5 7.5" stroke-width="2.5" stroke="rgba(235, 235, 235, 0.5)"></path><path d="M425 22.5 a2.5 2.5 0 1 0 5 0 a2.5 2.5 0 1 0 -5 0zM350 7.5 a2.5 2.5 0 1 0 5 0 a2.5 2.5 0 1 0 -5 0z" fill="rgba(235, 235, 235, 0.5)"></path><path d="M202.5 532.5L217.5 547.5L247.5 547.5L262.5 562.5" stroke-width="2.5" stroke="rgba(235, 235, 235, 0.5)"></path><path d="M200 532.5 a2.5 2.5 0 1 0 5 0 a2.5 2.5 0 1 0 -5 0zM260 562.5 a2.5 2.5 0 1 0 5 0 a2.5 2.5 0 1 0 -5 0z" fill="rgba(235, 235, 235, 0.5)"></path><path d="M637.5 562.5L697.5 562.5L712.5 547.5L712.5 502.5" stroke-width="2.5" stroke="rgba(235, 235, 235, 0.5)"></path><path d="M635 562.5 a2.5 2.5 0 1 0 5 0 a2.5 2.5 0 1 0 -5 0zM710 502.5 a2.5 2.5 0 1 0 5 0 a2.5 2.5 0 1 0 -5 0z" fill="rgba(235, 235, 235, 0.5)"></path><path d="M1282.5 22.5L1312.5 52.5L1417.5 52.5" stroke-width="2.5" stroke="rgba(235, 235, 235, 0.5)"></path><path d="M1280 22.5 a2.5 2.5 0 1 0 5 0 a2.5 2.5 0 1 0 -5 0zM1415 52.5 a2.5 2.5 0 1 0 5 0 a2.5 2.5 0 1 0 -5 0z" fill="rgba(235, 235, 235, 0.5)"></path><path d="M1177.5 292.5L1147.5 322.5" stroke-width="2.5" stroke="rgba(235, 235, 235, 0.5)"></path><path d="M1175 292.5 a2.5 2.5 0 1 0 5 0 a2.5 2.5 0 1 0 -5 0zM1145 322.5 a2.5 2.5 0 1 0 5 0 a2.5 2.5 0 1 0 -5 0z" fill="rgba(235, 235, 235, 0.5)"></path><path d="M1117.5 97.5L1147.5 67.5" stroke-width="2.5" stroke="rgba(235, 235, 235, 0.5)"></path><path d="M1115 97.5 a2.5 2.5 0 1 0 5 0 a2.5 2.5 0 1 0 -5 0zM1145 67.5 a2.5 2.5 0 1 0 5 0 a2.5 2.5 0 1 0 -5 0z" fill="rgba(235, 235, 235, 0.5)"></path><path d="M742.5 157.5L742.5 202.5" stroke-width="2.5" stroke="rgba(235, 235, 235, 0.5)"></path><path d="M740 157.5 a2.5 2.5 0 1 0 5 0 a2.5 2.5 0 1 0 -5 0zM740 202.5 a2.5 2.5 0 1 0 5 0 a2.5 2.5 0 1 0 -5 0z" fill="rgba(235, 235, 235, 0.5)"></path><path d="M937.5 262.5L982.5 307.5L1027.5 307.5" stroke-width="2.5" stroke="rgba(235, 235, 235, 0.5)"></path><path d="M935 262.5 a2.5 2.5 0 1 0 5 0 a2.5 2.5 0 1 0 -5 0zM1025 307.5 a2.5 2.5 0 1 0 5 0 a2.5 2.5 0 1 0 -5 0z" fill="rgba(235, 235, 235, 0.5)"></path><path d="M52.5 292.5L127.5 217.5L187.5 217.5" stroke-width="2.5" stroke="rgba(235, 235, 235, 0.5)"></path><path d="M50 292.5 a2.5 2.5 0 1 0 5 0 a2.5 2.5 0 1 0 -5 0zM185 217.5 a2.5 2.5 0 1 0 5 0 a2.5 2.5 0 1 0 -5 0z" fill="rgba(235, 235, 235, 0.5)"></path><path d="M1357.5 262.5L1387.5 262.5" stroke-width="2.5" stroke="rgba(235, 235, 235, 0.5)"></path><path d="M1355 262.5 a2.5 2.5 0 1 0 5 0 a2.5 2.5 0 1 0 -5 0zM1385 262.5 a2.5 2.5 0 1 0 5 0 a2.5 2.5 0 1 0 -5 0z" fill="rgba(235, 235, 235, 0.5)"></path><path d="M1162.5 352.5L1162.5 367.5L1132.5 397.5L1102.5 397.5" stroke-width="2.5" stroke="rgba(235, 235, 235, 0.5)"></path><path d="M1160 352.5 a2.5 2.5 0 1 0 5 0 a2.5 2.5 0 1 0 -5 0zM1100 397.5 a2.5 2.5 0 1 0 5 0 a2.5 2.5 0 1 0 -5 0z" fill="rgba(235, 235, 235, 0.5)"></path><path d="M1177.5 487.5L1147.5 457.5" stroke-width="2.5" stroke="rgba(235, 235, 235, 0.5)"></path><path d="M1175 487.5 a2.5 2.5 0 1 0 5 0 a2.5 2.5 0 1 0 -5 0zM1145 457.5 a2.5 2.5 0 1 0 5 0 a2.5 2.5 0 1 0 -5 0z" fill="rgba(235, 235, 235, 0.5)"></path><path d="M1207.5 142.5L1237.5 142.5L1282.5 187.5L1357.5 187.5" stroke-width="2.5" stroke="rgba(235, 235, 235, 0.5)"></path><path d="M1205 142.5 a2.5 2.5 0 1 0 5 0 a2.5 2.5 0 1 0 -5 0zM1355 187.5 a2.5 2.5 0 1 0 5 0 a2.5 2.5 0 1 0 -5 0z" fill="rgba(235, 235, 235, 0.5)"></path><path d="M487.5 7.5L487.5 52.5L502.5 67.5" stroke-width="2.5" stroke="rgba(235, 235, 235, 0.5)"></path><path d="M485 7.5 a2.5 2.5 0 1 0 5 0 a2.5 2.5 0 1 0 -5 0zM500 67.5 a2.5 2.5 0 1 0 5 0 a2.5 2.5 0 1 0 -5 0z" fill="rgba(235, 235, 235, 0.5)"></path><path d="M97.5 322.5L67.5 352.5L22.5 352.5" stroke-width="2.5" stroke="rgba(235, 235, 235, 0.5)"></path><path d="M95 322.5 a2.5 2.5 0 1 0 5 0 a2.5 2.5 0 1 0 -5 0zM20 352.5 a2.5 2.5 0 1 0 5 0 a2.5 2.5 0 1 0 -5 0z" fill="rgba(235, 235, 235, 0.5)"></path><path d="M697.5 67.5L712.5 67.5L727.5 52.5L817.5 52.5L937.5 172.5L982.5 172.5" stroke-width="2.5" stroke="rgba(235, 235, 235, 0.5)"></path><path d="M695 67.5 a2.5 2.5 0 1 0 5 0 a2.5 2.5 0 1 0 -5 0zM980 172.5 a2.5 2.5 0 1 0 5 0 a2.5 2.5 0 1 0 -5 0z" fill="rgba(235, 235, 235, 0.5)"></path><path d="M22.5 22.5L232.5 22.5L262.5 52.5" stroke-width="2.5" stroke="rgba(235, 235, 235, 0.5)"></path><path d="M20 22.5 a2.5 2.5 0 1 0 5 0 a2.5 2.5 0 1 0 -5 0zM260 52.5 a2.5 2.5 0 1 0 5 0 a2.5 2.5 0 1 0 -5 0z" fill="rgba(235, 235, 235, 0.5)"></path><path d="M907.5 232.5L952.5 187.5L982.5 187.5" stroke-width="2.5" stroke="rgba(235, 235, 235, 0.5)"></path><path d="M905 232.5 a2.5 2.5 0 1 0 5 0 a2.5 2.5 0 1 0 -5 0zM980 187.5 a2.5 2.5 0 1 0 5 0 a2.5 2.5 0 1 0 -5 0z" fill="rgba(235, 235, 235, 0.5)"></path><path d="M337.5 307.5L382.5 307.5" stroke-width="2.5" stroke="rgba(235, 235, 235, 0.5)"></path><path d="M335 307.5 a2.5 2.5 0 1 0 5 0 a2.5 2.5 0 1 0 -5 0zM380 307.5 a2.5 2.5 0 1 0 5 0 a2.5 2.5 0 1 0 -5 0z" fill="rgba(235, 235, 235, 0.5)"></path><path d="M1327.5 352.5L1357.5 322.5L1372.5 322.5L1402.5 352.5L1402.5 442.5L1387.5 457.5" stroke-width="2.5" stroke="rgba(235, 235, 235, 0.5)"></path><path d="M1325 352.5 a2.5 2.5 0 1 0 5 0 a2.5 2.5 0 1 0 -5 0zM1385 457.5 a2.5 2.5 0 1 0 5 0 a2.5 2.5 0 1 0 -5 0z" fill="rgba(235, 235, 235, 0.5)"></path><path d="M97.5 37.5L22.5 37.5" stroke-width="2.5" stroke="rgba(235, 235, 235, 0.5)"></path><path d="M95 37.5 a2.5 2.5 0 1 0 5 0 a2.5 2.5 0 1 0 -5 0zM20 37.5 a2.5 2.5 0 1 0 5 0 a2.5 2.5 0 1 0 -5 0z" fill="rgba(235, 235, 235, 0.5)"></path><path d="M982.5 517.5L937.5 562.5L877.5 562.5" stroke-width="2.5" stroke="rgba(235, 235, 235, 0.5)"></path><path d="M980 517.5 a2.5 2.5 0 1 0 5 0 a2.5 2.5 0 1 0 -5 0zM875 562.5 a2.5 2.5 0 1 0 5 0 a2.5 2.5 0 1 0 -5 0z" fill="rgba(235, 235, 235, 0.5)"></path><path d="M697.5 337.5L712.5 337.5L727.5 322.5L727.5 307.5" stroke-width="2.5" stroke="rgba(235, 235, 235, 0.5)"></path><path d="M695 337.5 a2.5 2.5 0 1 0 5 0 a2.5 2.5 0 1 0 -5 0zM725 307.5 a2.5 2.5 0 1 0 5 0 a2.5 2.5 0 1 0 -5 0z" fill="rgba(235, 235, 235, 0.5)"></path><path d="M502.5 187.5L457.5 187.5L382.5 262.5L382.5 277.5L412.5 307.5L427.5 307.5L472.5 352.5L532.5 352.5" stroke-width="2.5" stroke="rgba(235, 235, 235, 0.5)"></path><path d="M500 187.5 a2.5 2.5 0 1 0 5 0 a2.5 2.5 0 1 0 -5 0zM530 352.5 a2.5 2.5 0 1 0 5 0 a2.5 2.5 0 1 0 -5 0z" fill="rgba(235, 235, 235, 0.5)"></path><path d="M577.5 352.5L547.5 352.5L517.5 322.5" stroke-width="2.5" stroke="rgba(235, 235, 235, 0.5)"></path><path d="M575 352.5 a2.5 2.5 0 1 0 5 0 a2.5 2.5 0 1 0 -5 0zM515 322.5 a2.5 2.5 0 1 0 5 0 a2.5 2.5 0 1 0 -5 0z" fill="rgba(235, 235, 235, 0.5)"></path><path d="M142.5 247.5L157.5 232.5L187.5 232.5" stroke-width="2.5" stroke="rgba(235, 235, 235, 0.5)"></path><path d="M140 247.5 a2.5 2.5 0 1 0 5 0 a2.5 2.5 0 1 0 -5 0zM185 232.5 a2.5 2.5 0 1 0 5 0 a2.5 2.5 0 1 0 -5 0z" fill="rgba(235, 235, 235, 0.5)"></path><path d="M1387.5 37.5L1312.5 37.5L1297.5 22.5" stroke-width="2.5" stroke="rgba(235, 235, 235, 0.5)"></path><path d="M1385 37.5 a2.5 2.5 0 1 0 5 0 a2.5 2.5 0 1 0 -5 0zM1295 22.5 a2.5 2.5 0 1 0 5 0 a2.5 2.5 0 1 0 -5 0z" fill="rgba(235, 235, 235, 0.5)"></path><path d="M922.5 457.5L892.5 427.5L892.5 367.5L832.5 307.5L772.5 307.5L727.5 262.5L697.5 262.5" stroke-width="2.5" stroke="rgba(235, 235, 235, 0.5)"></path><path d="M920 457.5 a2.5 2.5 0 1 0 5 0 a2.5 2.5 0 1 0 -5 0zM695 262.5 a2.5 2.5 0 1 0 5 0 a2.5 2.5 0 1 0 -5 0z" fill="rgba(235, 235, 235, 0.5)"></path><path d="M1042.5 67.5L1027.5 52.5L1012.5 52.5L982.5 82.5L982.5 112.5L997.5 127.5L1117.5 127.5L1147.5 97.5L1147.5 82.5" stroke-width="2.5" stroke="rgba(235, 235, 235, 0.5)"></path><path d="M1040 67.5 a2.5 2.5 0 1 0 5 0 a2.5 2.5 0 1 0 -5 0zM1145 82.5 a2.5 2.5 0 1 0 5 0 a2.5 2.5 0 1 0 -5 0z" fill="rgba(235, 235, 235, 0.5)"></path><path d="M652.5 67.5L652.5 37.5" stroke-width="2.5" stroke="rgba(235, 235, 235, 0.5)"></path><path d="M650 67.5 a2.5 2.5 0 1 0 5 0 a2.5 2.5 0 1 0 -5 0zM650 37.5 a2.5 2.5 0 1 0 5 0 a2.5 2.5 0 1 0 -5 0z" fill="rgba(235, 235, 235, 0.5)"></path><path d="M457.5 232.5L487.5 262.5L487.5 292.5L457.5 322.5" stroke-width="2.5" stroke="rgba(235, 235, 235, 0.5)"></path><path d="M455 232.5 a2.5 2.5 0 1 0 5 0 a2.5 2.5 0 1 0 -5 0zM455 322.5 a2.5 2.5 0 1 0 5 0 a2.5 2.5 0 1 0 -5 0z" fill="rgba(235, 235, 235, 0.5)"></path><path d="M862.5 517.5L862.5 547.5" stroke-width="2.5" stroke="rgba(235, 235, 235, 0.5)"></path><path d="M860 517.5 a2.5 2.5 0 1 0 5 0 a2.5 2.5 0 1 0 -5 0zM860 547.5 a2.5 2.5 0 1 0 5 0 a2.5 2.5 0 1 0 -5 0z" fill="rgba(235, 235, 235, 0.5)"></path><path d="M82.5 292.5L97.5 307.5L112.5 307.5L172.5 247.5L187.5 247.5" stroke-width="2.5" stroke="rgba(235, 235, 235, 0.5)"></path><path d="M80 292.5 a2.5 2.5 0 1 0 5 0 a2.5 2.5 0 1 0 -5 0zM185 247.5 a2.5 2.5 0 1 0 5 0 a2.5 2.5 0 1 0 -5 0z" fill="rgba(235, 235, 235, 0.5)"></path><path d="M457.5 97.5L382.5 22.5" stroke-width="2.5" stroke="rgba(235, 235, 235, 0.5)"></path><path d="M455 97.5 a2.5 2.5 0 1 0 5 0 a2.5 2.5 0 1 0 -5 0zM380 22.5 a2.5 2.5 0 1 0 5 0 a2.5 2.5 0 1 0 -5 0z" fill="rgba(235, 235, 235, 0.5)"></path><path d="M517.5 547.5L547.5 517.5L547.5 502.5" stroke-width="2.5" stroke="rgba(235, 235, 235, 0.5)"></path><path d="M515 547.5 a2.5 2.5 0 1 0 5 0 a2.5 2.5 0 1 0 -5 0zM545 502.5 a2.5 2.5 0 1 0 5 0 a2.5 2.5 0 1 0 -5 0z" fill="rgba(235, 235, 235, 0.5)"></path><path d="M187.5 82.5L187.5 97.5L202.5 112.5L202.5 127.5" stroke-width="2.5" stroke="rgba(235, 235, 235, 0.5)"></path><path d="M185 82.5 a2.5 2.5 0 1 0 5 0 a2.5 2.5 0 1 0 -5 0zM200 127.5 a2.5 2.5 0 1 0 5 0 a2.5 2.5 0 1 0 -5 0z" fill="rgba(235, 235, 235, 0.5)"></path><path d="M532.5 502.5L532.5 517.5L502.5 547.5L457.5 547.5" stroke-width="2.5" stroke="rgba(235, 235, 235, 0.5)"></path><path d="M530 502.5 a2.5 2.5 0 1 0 5 0 a2.5 2.5 0 1 0 -5 0zM455 547.5 a2.5 2.5 0 1 0 5 0 a2.5 2.5 0 1 0 -5 0z" fill="rgba(235, 235, 235, 0.5)"></path><path d="M772.5 262.5L742.5 262.5" stroke-width="2.5" stroke="rgba(235, 235, 235, 0.5)"></path><path d="M770 262.5 a2.5 2.5 0 1 0 5 0 a2.5 2.5 0 1 0 -5 0zM740 262.5 a2.5 2.5 0 1 0 5 0 a2.5 2.5 0 1 0 -5 0z" fill="rgba(235, 235, 235, 0.5)"></path><path d="M967.5 22.5L982.5 7.5L1012.5 7.5" stroke-width="2.5" stroke="rgba(235, 235, 235, 0.5)"></path><path d="M965 22.5 a2.5 2.5 0 1 0 5 0 a2.5 2.5 0 1 0 -5 0zM1010 7.5 a2.5 2.5 0 1 0 5 0 a2.5 2.5 0 1 0 -5 0z" fill="rgba(235, 235, 235, 0.5)"></path><path d="M1297.5 367.5L1297.5 322.5L1282.5 307.5L1282.5 292.5" stroke-width="2.5" stroke="rgba(235, 235, 235, 0.5)"></path><path d="M1295 367.5 a2.5 2.5 0 1 0 5 0 a2.5 2.5 0 1 0 -5 0zM1280 292.5 a2.5 2.5 0 1 0 5 0 a2.5 2.5 0 1 0 -5 0z" fill="rgba(235, 235, 235, 0.5)"></path><path d="M337.5 37.5L382.5 82.5" stroke-width="2.5" stroke="rgba(235, 235, 235, 0.5)"></path><path d="M335 37.5 a2.5 2.5 0 1 0 5 0 a2.5 2.5 0 1 0 -5 0zM380 82.5 a2.5 2.5 0 1 0 5 0 a2.5 2.5 0 1 0 -5 0z" fill="rgba(235, 235, 235, 0.5)"></path><path d="M1282.5 322.5L1252.5 322.5" stroke-width="2.5" stroke="rgba(235, 235, 235, 0.5)"></path><path d="M1280 322.5 a2.5 2.5 0 1 0 5 0 a2.5 2.5 0 1 0 -5 0zM1250 322.5 a2.5 2.5 0 1 0 5 0 a2.5 2.5 0 1 0 -5 0z" fill="rgba(235, 235, 235, 0.5)"></path><path d="M157.5 187.5L187.5 187.5" stroke-width="2.5" stroke="rgba(235, 235, 235, 0.5)"></path><path d="M155 187.5 a2.5 2.5 0 1 0 5 0 a2.5 2.5 0 1 0 -5 0zM185 187.5 a2.5 2.5 0 1 0 5 0 a2.5 2.5 0 1 0 -5 0z" fill="rgba(235, 235, 235, 0.5)"></path><path d="M577.5 397.5L532.5 397.5" stroke-width="2.5" stroke="rgba(235, 235, 235, 0.5)"></path><path d="M575 397.5 a2.5 2.5 0 1 0 5 0 a2.5 2.5 0 1 0 -5 0zM530 397.5 a2.5 2.5 0 1 0 5 0 a2.5 2.5 0 1 0 -5 0z" fill="rgba(235, 235, 235, 0.5)"></path><path d="M1297.5 457.5L1387.5 367.5L1387.5 352.5L1372.5 337.5L1357.5 337.5L1312.5 382.5L1297.5 382.5" stroke-width="2.5" stroke="rgba(235, 235, 235, 0.5)"></path><path d="M1295 457.5 a2.5 2.5 0 1 0 5 0 a2.5 2.5 0 1 0 -5 0zM1295 382.5 a2.5 2.5 0 1 0 5 0 a2.5 2.5 0 1 0 -5 0z" fill="rgba(235, 235, 235, 0.5)"></path><path d="M157.5 172.5L187.5 142.5" stroke-width="2.5" stroke="rgba(235, 235, 235, 0.5)"></path><path d="M155 172.5 a2.5 2.5 0 1 0 5 0 a2.5 2.5 0 1 0 -5 0zM185 142.5 a2.5 2.5 0 1 0 5 0 a2.5 2.5 0 1 0 -5 0z" fill="rgba(235, 235, 235, 0.5)"></path><path d="M247.5 457.5L262.5 457.5L277.5 472.5L277.5 532.5" stroke-width="2.5" stroke="rgba(235, 235, 235, 0.5)"></path><path d="M245 457.5 a2.5 2.5 0 1 0 5 0 a2.5 2.5 0 1 0 -5 0zM275 532.5 a2.5 2.5 0 1 0 5 0 a2.5 2.5 0 1 0 -5 0z" fill="rgba(235, 235, 235, 0.5)"></path><path d="M772.5 97.5L802.5 67.5L817.5 67.5L937.5 187.5" stroke-width="2.5" stroke="rgba(235, 235, 235, 0.5)"></path><path d="M770 97.5 a2.5 2.5 0 1 0 5 0 a2.5 2.5 0 1 0 -5 0zM935 187.5 a2.5 2.5 0 1 0 5 0 a2.5 2.5 0 1 0 -5 0z" fill="rgba(235, 235, 235, 0.5)"></path><path d="M1327.5 232.5L1357.5 202.5" stroke-width="2.5" stroke="rgba(235, 235, 235, 0.5)"></path><path d="M1325 232.5 a2.5 2.5 0 1 0 5 0 a2.5 2.5 0 1 0 -5 0zM1355 202.5 a2.5 2.5 0 1 0 5 0 a2.5 2.5 0 1 0 -5 0z" fill="rgba(235, 235, 235, 0.5)"></path><path d="M1387.5 157.5L1417.5 187.5L1417.5 217.5" stroke-width="2.5" stroke="rgba(235, 235, 235, 0.5)"></path><path d="M1385 157.5 a2.5 2.5 0 1 0 5 0 a2.5 2.5 0 1 0 -5 0zM1415 217.5 a2.5 2.5 0 1 0 5 0 a2.5 2.5 0 1 0 -5 0z" fill="rgba(235, 235, 235, 0.5)"></path><path d="M337.5 472.5L307.5 472.5" stroke-width="2.5" stroke="rgba(235, 235, 235, 0.5)"></path><path d="M335 472.5 a2.5 2.5 0 1 0 5 0 a2.5 2.5 0 1 0 -5 0zM305 472.5 a2.5 2.5 0 1 0 5 0 a2.5 2.5 0 1 0 -5 0z" fill="rgba(235, 235, 235, 0.5)"></path><path d="M502.5 367.5L532.5 367.5" stroke-width="2.5" stroke="rgba(235, 235, 235, 0.5)"></path><path d="M500 367.5 a2.5 2.5 0 1 0 5 0 a2.5 2.5 0 1 0 -5 0zM530 367.5 a2.5 2.5 0 1 0 5 0 a2.5 2.5 0 1 0 -5 0z" fill="rgba(235, 235, 235, 0.5)"></path><path d="M1087.5 532.5L1072.5 547.5L1057.5 547.5" stroke-width="2.5" stroke="rgba(235, 235, 235, 0.5)"></path><path d="M1085 532.5 a2.5 2.5 0 1 0 5 0 a2.5 2.5 0 1 0 -5 0zM1055 547.5 a2.5 2.5 0 1 0 5 0 a2.5 2.5 0 1 0 -5 0z" fill="rgba(235, 235, 235, 0.5)"></path><path d="M1057.5 67.5L1072.5 52.5L1072.5 37.5L1087.5 22.5L1102.5 22.5L1117.5 37.5L1132.5 37.5" stroke-width="2.5" stroke="rgba(235, 235, 235, 0.5)"></path><path d="M1055 67.5 a2.5 2.5 0 1 0 5 0 a2.5 2.5 0 1 0 -5 0zM1130 37.5 a2.5 2.5 0 1 0 5 0 a2.5 2.5 0 1 0 -5 0z" fill="rgba(235, 235, 235, 0.5)"></path><path d="M1372.5 82.5L1357.5 82.5L1342.5 67.5" stroke-width="2.5" stroke="rgba(235, 235, 235, 0.5)"></path><path d="M1370 82.5 a2.5 2.5 0 1 0 5 0 a2.5 2.5 0 1 0 -5 0zM1340 67.5 a2.5 2.5 0 1 0 5 0 a2.5 2.5 0 1 0 -5 0z" fill="rgba(235, 235, 235, 0.5)"></path><path d="M52.5 97.5L142.5 97.5L172.5 127.5L172.5 142.5" stroke-width="2.5" stroke="rgba(235, 235, 235, 0.5)"></path><path d="M50 97.5 a2.5 2.5 0 1 0 5 0 a2.5 2.5 0 1 0 -5 0zM170 142.5 a2.5 2.5 0 1 0 5 0 a2.5 2.5 0 1 0 -5 0z" fill="rgba(235, 235, 235, 0.5)"></path><path d="M112.5 547.5L97.5 547.5L52.5 502.5" stroke-width="2.5" stroke="rgba(235, 235, 235, 0.5)"></path><path d="M110 547.5 a2.5 2.5 0 1 0 5 0 a2.5 2.5 0 1 0 -5 0zM50 502.5 a2.5 2.5 0 1 0 5 0 a2.5 2.5 0 1 0 -5 0z" fill="rgba(235, 235, 235, 0.5)"></path><path d="M1057.5 517.5L1027.5 517.5" stroke-width="2.5" stroke="rgba(235, 235, 235, 0.5)"></path><path d="M1055 517.5 a2.5 2.5 0 1 0 5 0 a2.5 2.5 0 1 0 -5 0zM1025 517.5 a2.5 2.5 0 1 0 5 0 a2.5 2.5 0 1 0 -5 0z" fill="rgba(235, 235, 235, 0.5)"></path><path d="M982.5 562.5L997.5 562.5L1012.5 547.5" stroke-width="2.5" stroke="rgba(235, 235, 235, 0.5)"></path><path d="M980 562.5 a2.5 2.5 0 1 0 5 0 a2.5 2.5 0 1 0 -5 0zM1010 547.5 a2.5 2.5 0 1 0 5 0 a2.5 2.5 0 1 0 -5 0z" fill="rgba(235, 235, 235, 0.5)"></path><path d="M187.5 277.5L172.5 277.5L112.5 337.5" stroke-width="2.5" stroke="rgba(235, 235, 235, 0.5)"></path><path d="M185 277.5 a2.5 2.5 0 1 0 5 0 a2.5 2.5 0 1 0 -5 0zM110 337.5 a2.5 2.5 0 1 0 5 0 a2.5 2.5 0 1 0 -5 0z" fill="rgba(235, 235, 235, 0.5)"></path><path d="M1027.5 112.5L1102.5 37.5" stroke-width="2.5" stroke="rgba(235, 235, 235, 0.5)"></path><path d="M1025 112.5 a2.5 2.5 0 1 0 5 0 a2.5 2.5 0 1 0 -5 0zM1100 37.5 a2.5 2.5 0 1 0 5 0 a2.5 2.5 0 1 0 -5 0z" fill="rgba(235, 235, 235, 0.5)"></path><path d="M1417.5 112.5L1372.5 157.5L1357.5 157.5L1312.5 112.5L1312.5 82.5" stroke-width="2.5" stroke="rgba(235, 235, 235, 0.5)"></path><path d="M1415 112.5 a2.5 2.5 0 1 0 5 0 a2.5 2.5 0 1 0 -5 0zM1310 82.5 a2.5 2.5 0 1 0 5 0 a2.5 2.5 0 1 0 -5 0z" fill="rgba(235, 235, 235, 0.5)"></path><path d="M1132.5 232.5L1132.5 247.5L1117.5 262.5L1012.5 262.5L982.5 232.5L982.5 217.5" stroke-width="2.5" stroke="rgba(235, 235, 235, 0.5)"></path><path d="M1130 232.5 a2.5 2.5 0 1 0 5 0 a2.5 2.5 0 1 0 -5 0zM980 217.5 a2.5 2.5 0 1 0 5 0 a2.5 2.5 0 1 0 -5 0z" fill="rgba(235, 235, 235, 0.5)"></path><path d="M802.5 427.5L727.5 427.5" stroke-width="2.5" stroke="rgba(235, 235, 235, 0.5)"></path><path d="M800 427.5 a2.5 2.5 0 1 0 5 0 a2.5 2.5 0 1 0 -5 0zM725 427.5 a2.5 2.5 0 1 0 5 0 a2.5 2.5 0 1 0 -5 0z" fill="rgba(235, 235, 235, 0.5)"></path><path d="M322.5 37.5L262.5 97.5" stroke-width="2.5" stroke="rgba(235, 235, 235, 0.5)"></path><path d="M320 37.5 a2.5 2.5 0 1 0 5 0 a2.5 2.5 0 1 0 -5 0zM260 97.5 a2.5 2.5 0 1 0 5 0 a2.5 2.5 0 1 0 -5 0z" fill="rgba(235, 235, 235, 0.5)"></path><path d="M112.5 157.5L157.5 157.5" stroke-width="2.5" stroke="rgba(235, 235, 235, 0.5)"></path><path d="M110 157.5 a2.5 2.5 0 1 0 5 0 a2.5 2.5 0 1 0 -5 0zM155 157.5 a2.5 2.5 0 1 0 5 0 a2.5 2.5 0 1 0 -5 0z" fill="rgba(235, 235, 235, 0.5)"></path><path d="M862.5 142.5L877.5 142.5L922.5 187.5L922.5 202.5L907.5 217.5L892.5 217.5L787.5 112.5L772.5 112.5" stroke-width="2.5" stroke="rgba(235, 235, 235, 0.5)"></path><path d="M860 142.5 a2.5 2.5 0 1 0 5 0 a2.5 2.5 0 1 0 -5 0zM770 112.5 a2.5 2.5 0 1 0 5 0 a2.5 2.5 0 1 0 -5 0z" fill="rgba(235, 235, 235, 0.5)"></path><path d="M292.5 412.5L292.5 442.5L307.5 457.5L352.5 457.5L397.5 412.5L397.5 397.5L382.5 382.5L307.5 382.5L292.5 397.5" stroke-width="2.5" stroke="rgba(235, 235, 235, 0.5)"></path><path d="M290 412.5 a2.5 2.5 0 1 0 5 0 a2.5 2.5 0 1 0 -5 0zM290 397.5 a2.5 2.5 0 1 0 5 0 a2.5 2.5 0 1 0 -5 0z" fill="rgba(235, 235, 235, 0.5)"></path><path d="M232.5 292.5L232.5 262.5" stroke-width="2.5" stroke="rgba(235, 235, 235, 0.5)"></path><path d="M230 292.5 a2.5 2.5 0 1 0 5 0 a2.5 2.5 0 1 0 -5 0zM230 262.5 a2.5 2.5 0 1 0 5 0 a2.5 2.5 0 1 0 -5 0z" fill="rgba(235, 235, 235, 0.5)"></path><path d="M277.5 232.5L247.5 232.5" stroke-width="2.5" stroke="rgba(235, 235, 235, 0.5)"></path><path d="M275 232.5 a2.5 2.5 0 1 0 5 0 a2.5 2.5 0 1 0 -5 0zM245 232.5 a2.5 2.5 0 1 0 5 0 a2.5 2.5 0 1 0 -5 0z" fill="rgba(235, 235, 235, 0.5)"></path><path d="M112.5 112.5L142.5 112.5L157.5 127.5" stroke-width="2.5" stroke="rgba(235, 235, 235, 0.5)"></path><path d="M110 112.5 a2.5 2.5 0 1 0 5 0 a2.5 2.5 0 1 0 -5 0zM155 127.5 a2.5 2.5 0 1 0 5 0 a2.5 2.5 0 1 0 -5 0z" fill="rgba(235, 235, 235, 0.5)"></path><path d="M997.5 412.5L1057.5 472.5L1072.5 472.5" stroke-width="2.5" stroke="rgba(235, 235, 235, 0.5)"></path><path d="M995 412.5 a2.5 2.5 0 1 0 5 0 a2.5 2.5 0 1 0 -5 0zM1070 472.5 a2.5 2.5 0 1 0 5 0 a2.5 2.5 0 1 0 -5 0z" fill="rgba(235, 235, 235, 0.5)"></path><path d="M472.5 502.5L517.5 502.5" stroke-width="2.5" stroke="rgba(235, 235, 235, 0.5)"></path><path d="M470 502.5 a2.5 2.5 0 1 0 5 0 a2.5 2.5 0 1 0 -5 0zM515 502.5 a2.5 2.5 0 1 0 5 0 a2.5 2.5 0 1 0 -5 0z" fill="rgba(235, 235, 235, 0.5)"></path><path d="M757.5 127.5L847.5 217.5L847.5 262.5L862.5 277.5L877.5 277.5L892.5 262.5" stroke-width="2.5" stroke="rgba(235, 235, 235, 0.5)"></path><path d="M755 127.5 a2.5 2.5 0 1 0 5 0 a2.5 2.5 0 1 0 -5 0zM890 262.5 a2.5 2.5 0 1 0 5 0 a2.5 2.5 0 1 0 -5 0z" fill="rgba(235, 235, 235, 0.5)"></path><path d="M877.5 22.5L847.5 52.5" stroke-width="2.5" stroke="rgba(235, 235, 235, 0.5)"></path><path d="M875 22.5 a2.5 2.5 0 1 0 5 0 a2.5 2.5 0 1 0 -5 0zM845 52.5 a2.5 2.5 0 1 0 5 0 a2.5 2.5 0 1 0 -5 0z" fill="rgba(235, 235, 235, 0.5)"></path><path d="M262.5 292.5L277.5 307.5L322.5 307.5L337.5 292.5L367.5 292.5" stroke-width="2.5" stroke="rgba(235, 235, 235, 0.5)"></path><path d="M260 292.5 a2.5 2.5 0 1 0 5 0 a2.5 2.5 0 1 0 -5 0zM365 292.5 a2.5 2.5 0 1 0 5 0 a2.5 2.5 0 1 0 -5 0z" fill="rgba(235, 235, 235, 0.5)"></path><path d="M1042.5 442.5L1057.5 457.5L1072.5 457.5" stroke-width="2.5" stroke="rgba(235, 235, 235, 0.5)"></path><path d="M1040 442.5 a2.5 2.5 0 1 0 5 0 a2.5 2.5 0 1 0 -5 0zM1070 457.5 a2.5 2.5 0 1 0 5 0 a2.5 2.5 0 1 0 -5 0z" fill="rgba(235, 235, 235, 0.5)"></path><path d="M667.5 382.5L667.5 412.5L697.5 442.5L697.5 472.5" stroke-width="2.5" stroke="rgba(235, 235, 235, 0.5)"></path><path d="M665 382.5 a2.5 2.5 0 1 0 5 0 a2.5 2.5 0 1 0 -5 0zM695 472.5 a2.5 2.5 0 1 0 5 0 a2.5 2.5 0 1 0 -5 0z" fill="rgba(235, 235, 235, 0.5)"></path><path d="M397.5 277.5L397.5 262.5L457.5 202.5L487.5 202.5L517.5 232.5L517.5 262.5L502.5 277.5" stroke-width="2.5" stroke="rgba(235, 235, 235, 0.5)"></path><path d="M395 277.5 a2.5 2.5 0 1 0 5 0 a2.5 2.5 0 1 0 -5 0zM500 277.5 a2.5 2.5 0 1 0 5 0 a2.5 2.5 0 1 0 -5 0z" fill="rgba(235, 235, 235, 0.5)"></path><path d="M1012.5 232.5L1027.5 217.5L1057.5 217.5L1087.5 247.5L1117.5 247.5" stroke-width="2.5" stroke="rgba(235, 235, 235, 0.5)"></path><path d="M1010 232.5 a2.5 2.5 0 1 0 5 0 a2.5 2.5 0 1 0 -5 0zM1115 247.5 a2.5 2.5 0 1 0 5 0 a2.5 2.5 0 1 0 -5 0z" fill="rgba(235, 235, 235, 0.5)"></path><path d="M1402.5 157.5L1402.5 142.5L1417.5 127.5" stroke-width="2.5" stroke="rgba(235, 235, 235, 0.5)"></path><path d="M1400 157.5 a2.5 2.5 0 1 0 5 0 a2.5 2.5 0 1 0 -5 0zM1415 127.5 a2.5 2.5 0 1 0 5 0 a2.5 2.5 0 1 0 -5 0z" fill="rgba(235, 235, 235, 0.5)"></path><path d="M37.5 322.5L52.5 337.5L67.5 337.5L82.5 322.5L82.5 307.5L67.5 292.5" stroke-width="2.5" stroke="rgba(235, 235, 235, 0.5)"></path><path d="M35 322.5 a2.5 2.5 0 1 0 5 0 a2.5 2.5 0 1 0 -5 0zM65 292.5 a2.5 2.5 0 1 0 5 0 a2.5 2.5 0 1 0 -5 0z" fill="rgba(235, 235, 235, 0.5)"></path><path d="M1312.5 337.5L1312.5 367.5" stroke-width="2.5" stroke="rgba(235, 235, 235, 0.5)"></path><path d="M1310 337.5 a2.5 2.5 0 1 0 5 0 a2.5 2.5 0 1 0 -5 0zM1310 367.5 a2.5 2.5 0 1 0 5 0 a2.5 2.5 0 1 0 -5 0z" fill="rgba(235, 235, 235, 0.5)"></path><path d="M112.5 502.5L157.5 502.5L202.5 547.5" stroke-width="2.5" stroke="rgba(235, 235, 235, 0.5)"></path><path d="M110 502.5 a2.5 2.5 0 1 0 5 0 a2.5 2.5 0 1 0 -5 0zM200 547.5 a2.5 2.5 0 1 0 5 0 a2.5 2.5 0 1 0 -5 0z" fill="rgba(235, 235, 235, 0.5)"></path><path d="M937.5 112.5L937.5 142.5" stroke-width="2.5" stroke="rgba(235, 235, 235, 0.5)"></path><path d="M935 112.5 a2.5 2.5 0 1 0 5 0 a2.5 2.5 0 1 0 -5 0zM935 142.5 a2.5 2.5 0 1 0 5 0 a2.5 2.5 0 1 0 -5 0z" fill="rgba(235, 235, 235, 0.5)"></path><path d="M772.5 502.5L772.5 562.5" stroke-width="2.5" stroke="rgba(235, 235, 235, 0.5)"></path><path d="M770 502.5 a2.5 2.5 0 1 0 5 0 a2.5 2.5 0 1 0 -5 0zM770 562.5 a2.5 2.5 0 1 0 5 0 a2.5 2.5 0 1 0 -5 0z" fill="rgba(235, 235, 235, 0.5)"></path><path d="M667.5 307.5L622.5 307.5L577.5 262.5" stroke-width="2.5" stroke="rgba(235, 235, 235, 0.5)"></path><path d="M665 307.5 a2.5 2.5 0 1 0 5 0 a2.5 2.5 0 1 0 -5 0zM575 262.5 a2.5 2.5 0 1 0 5 0 a2.5 2.5 0 1 0 -5 0z" fill="rgba(235, 235, 235, 0.5)"></path><path d="M172.5 547.5L127.5 547.5L82.5 502.5L67.5 502.5" stroke-width="2.5" stroke="rgba(235, 235, 235, 0.5)"></path><path d="M170 547.5 a2.5 2.5 0 1 0 5 0 a2.5 2.5 0 1 0 -5 0zM65 502.5 a2.5 2.5 0 1 0 5 0 a2.5 2.5 0 1 0 -5 0z" fill="rgba(235, 235, 235, 0.5)"></path><path d="M547.5 52.5L622.5 127.5L637.5 127.5" stroke-width="2.5" stroke="rgba(235, 235, 235, 0.5)"></path><path d="M545 52.5 a2.5 2.5 0 1 0 5 0 a2.5 2.5 0 1 0 -5 0zM635 127.5 a2.5 2.5 0 1 0 5 0 a2.5 2.5 0 1 0 -5 0z" fill="rgba(235, 235, 235, 0.5)"></path><path d="M652.5 427.5L622.5 397.5L592.5 397.5L562.5 427.5" stroke-width="2.5" stroke="rgba(235, 235, 235, 0.5)"></path><path d="M650 427.5 a2.5 2.5 0 1 0 5 0 a2.5 2.5 0 1 0 -5 0zM560 427.5 a2.5 2.5 0 1 0 5 0 a2.5 2.5 0 1 0 -5 0z" fill="rgba(235, 235, 235, 0.5)"></path><path d="M622.5 442.5L622.5 412.5" stroke-width="2.5" stroke="rgba(235, 235, 235, 0.5)"></path><path d="M620 442.5 a2.5 2.5 0 1 0 5 0 a2.5 2.5 0 1 0 -5 0zM620 412.5 a2.5 2.5 0 1 0 5 0 a2.5 2.5 0 1 0 -5 0z" fill="rgba(235, 235, 235, 0.5)"></path><path d="M862.5 307.5L907.5 307.5L937.5 337.5L937.5 352.5" stroke-width="2.5" stroke="rgba(235, 235, 235, 0.5)"></path><path d="M860 307.5 a2.5 2.5 0 1 0 5 0 a2.5 2.5 0 1 0 -5 0zM935 352.5 a2.5 2.5 0 1 0 5 0 a2.5 2.5 0 1 0 -5 0z" fill="rgba(235, 235, 235, 0.5)"></path><path d="M322.5 142.5L337.5 127.5L367.5 127.5" stroke-width="2.5" stroke="rgba(235, 235, 235, 0.5)"></path><path d="M320 142.5 a2.5 2.5 0 1 0 5 0 a2.5 2.5 0 1 0 -5 0zM365 127.5 a2.5 2.5 0 1 0 5 0 a2.5 2.5 0 1 0 -5 0z" fill="rgba(235, 235, 235, 0.5)"></path><path d="M1312.5 292.5L1372.5 292.5" stroke-width="2.5" stroke="rgba(235, 235, 235, 0.5)"></path><path d="M1310 292.5 a2.5 2.5 0 1 0 5 0 a2.5 2.5 0 1 0 -5 0zM1370 292.5 a2.5 2.5 0 1 0 5 0 a2.5 2.5 0 1 0 -5 0z" fill="rgba(235, 235, 235, 0.5)"></path><path d="M67.5 217.5L37.5 217.5" stroke-width="2.5" stroke="rgba(235, 235, 235, 0.5)"></path><path d="M65 217.5 a2.5 2.5 0 1 0 5 0 a2.5 2.5 0 1 0 -5 0zM35 217.5 a2.5 2.5 0 1 0 5 0 a2.5 2.5 0 1 0 -5 0z" fill="rgba(235, 235, 235, 0.5)"></path><path d="M1162.5 517.5L1162.5 487.5L1147.5 472.5L1132.5 472.5" stroke-width="2.5" stroke="rgba(235, 235, 235, 0.5)"></path><path d="M1160 517.5 a2.5 2.5 0 1 0 5 0 a2.5 2.5 0 1 0 -5 0zM1130 472.5 a2.5 2.5 0 1 0 5 0 a2.5 2.5 0 1 0 -5 0z" fill="rgba(235, 235, 235, 0.5)"></path><path d="M37.5 247.5L52.5 247.5L67.5 232.5" stroke-width="2.5" stroke="rgba(235, 235, 235, 0.5)"></path><path d="M35 247.5 a2.5 2.5 0 1 0 5 0 a2.5 2.5 0 1 0 -5 0zM65 232.5 a2.5 2.5 0 1 0 5 0 a2.5 2.5 0 1 0 -5 0z" fill="rgba(235, 235, 235, 0.5)"></path><path d="M1252.5 97.5L1282.5 127.5L1312.5 127.5" stroke-width="2.5" stroke="rgba(235, 235, 235, 0.5)"></path><path d="M1250 97.5 a2.5 2.5 0 1 0 5 0 a2.5 2.5 0 1 0 -5 0zM1310 127.5 a2.5 2.5 0 1 0 5 0 a2.5 2.5 0 1 0 -5 0z" fill="rgba(235, 235, 235, 0.5)"></path><path d="M1357.5 412.5L1387.5 382.5" stroke-width="2.5" stroke="rgba(235, 235, 235, 0.5)"></path><path d="M1355 412.5 a2.5 2.5 0 1 0 5 0 a2.5 2.5 0 1 0 -5 0zM1385 382.5 a2.5 2.5 0 1 0 5 0 a2.5 2.5 0 1 0 -5 0z" fill="rgba(235, 235, 235, 0.5)"></path><path d="M1402.5 112.5L1387.5 97.5L1372.5 97.5" stroke-width="2.5" stroke="rgba(235, 235, 235, 0.5)"></path><path d="M1400 112.5 a2.5 2.5 0 1 0 5 0 a2.5 2.5 0 1 0 -5 0zM1370 97.5 a2.5 2.5 0 1 0 5 0 a2.5 2.5 0 1 0 -5 0z" fill="rgba(235, 235, 235, 0.5)"></path><path d="M67.5 202.5L97.5 202.5" stroke-width="2.5" stroke="rgba(235, 235, 235, 0.5)"></path><path d="M65 202.5 a2.5 2.5 0 1 0 5 0 a2.5 2.5 0 1 0 -5 0zM95 202.5 a2.5 2.5 0 1 0 5 0 a2.5 2.5 0 1 0 -5 0z" fill="rgba(235, 235, 235, 0.5)"></path><path d="M832.5 487.5L847.5 502.5L847.5 547.5" stroke-width="2.5" stroke="rgba(235, 235, 235, 0.5)"></path><path d="M830 487.5 a2.5 2.5 0 1 0 5 0 a2.5 2.5 0 1 0 -5 0zM845 547.5 a2.5 2.5 0 1 0 5 0 a2.5 2.5 0 1 0 -5 0z" fill="rgba(235, 235, 235, 0.5)"></path><path d="M952.5 487.5L952.5 517.5L922.5 547.5L892.5 547.5" stroke-width="2.5" stroke="rgba(235, 235, 235, 0.5)"></path><path d="M950 487.5 a2.5 2.5 0 1 0 5 0 a2.5 2.5 0 1 0 -5 0zM890 547.5 a2.5 2.5 0 1 0 5 0 a2.5 2.5 0 1 0 -5 0z" fill="rgba(235, 235, 235, 0.5)"></path><path d="M82.5 412.5L37.5 457.5L7.5 457.5" stroke-width="2.5" stroke="rgba(235, 235, 235, 0.5)"></path><path d="M80 412.5 a2.5 2.5 0 1 0 5 0 a2.5 2.5 0 1 0 -5 0zM5 457.5 a2.5 2.5 0 1 0 5 0 a2.5 2.5 0 1 0 -5 0z" fill="rgba(235, 235, 235, 0.5)"></path><path d="M757.5 517.5L757.5 532.5L727.5 562.5L712.5 562.5" stroke-width="2.5" stroke="rgba(235, 235, 235, 0.5)"></path><path d="M755 517.5 a2.5 2.5 0 1 0 5 0 a2.5 2.5 0 1 0 -5 0zM710 562.5 a2.5 2.5 0 1 0 5 0 a2.5 2.5 0 1 0 -5 0z" fill="rgba(235, 235, 235, 0.5)"></path><path d="M352.5 277.5L292.5 277.5L277.5 292.5" stroke-width="2.5" stroke="rgba(235, 235, 235, 0.5)"></path><path d="M350 277.5 a2.5 2.5 0 1 0 5 0 a2.5 2.5 0 1 0 -5 0zM275 292.5 a2.5 2.5 0 1 0 5 0 a2.5 2.5 0 1 0 -5 0z" fill="rgba(235, 235, 235, 0.5)"></path><path d="M307.5 172.5L322.5 157.5L337.5 157.5L352.5 142.5" stroke-width="2.5" stroke="rgba(235, 235, 235, 0.5)"></path><path d="M305 172.5 a2.5 2.5 0 1 0 5 0 a2.5 2.5 0 1 0 -5 0zM350 142.5 a2.5 2.5 0 1 0 5 0 a2.5 2.5 0 1 0 -5 0z" fill="rgba(235, 235, 235, 0.5)"></path><path d="M742.5 142.5L727.5 157.5L727.5 172.5" stroke-width="2.5" stroke="rgba(235, 235, 235, 0.5)"></path><path d="M740 142.5 a2.5 2.5 0 1 0 5 0 a2.5 2.5 0 1 0 -5 0zM725 172.5 a2.5 2.5 0 1 0 5 0 a2.5 2.5 0 1 0 -5 0z" fill="rgba(235, 235, 235, 0.5)"></path><path d="M1057.5 97.5L1087.5 97.5" stroke-width="2.5" stroke="rgba(235, 235, 235, 0.5)"></path><path d="M1055 97.5 a2.5 2.5 0 1 0 5 0 a2.5 2.5 0 1 0 -5 0zM1085 97.5 a2.5 2.5 0 1 0 5 0 a2.5 2.5 0 1 0 -5 0z" fill="rgba(235, 235, 235, 0.5)"></path><path d="M487.5 412.5L517.5 412.5L547.5 442.5L547.5 457.5" stroke-width="2.5" stroke="rgba(235, 235, 235, 0.5)"></path><path d="M485 412.5 a2.5 2.5 0 1 0 5 0 a2.5 2.5 0 1 0 -5 0zM545 457.5 a2.5 2.5 0 1 0 5 0 a2.5 2.5 0 1 0 -5 0z" fill="rgba(235, 235, 235, 0.5)"></path><path d="M187.5 502.5L187.5 487.5L112.5 412.5L97.5 412.5L67.5 442.5" stroke-width="2.5" stroke="rgba(235, 235, 235, 0.5)"></path><path d="M185 502.5 a2.5 2.5 0 1 0 5 0 a2.5 2.5 0 1 0 -5 0zM65 442.5 a2.5 2.5 0 1 0 5 0 a2.5 2.5 0 1 0 -5 0z" fill="rgba(235, 235, 235, 0.5)"></path><path d="M22.5 442.5L52.5 412.5L67.5 412.5" stroke-width="2.5" stroke="rgba(235, 235, 235, 0.5)"></path><path d="M20 442.5 a2.5 2.5 0 1 0 5 0 a2.5 2.5 0 1 0 -5 0zM65 412.5 a2.5 2.5 0 1 0 5 0 a2.5 2.5 0 1 0 -5 0z" fill="rgba(235, 235, 235, 0.5)"></path><path d="M1282.5 502.5L1267.5 517.5L1252.5 517.5L1222.5 487.5L1222.5 472.5L1252.5 442.5L1297.5 442.5L1327.5 412.5" stroke-width="2.5" stroke="rgba(235, 235, 235, 0.5)"></path><path d="M1280 502.5 a2.5 2.5 0 1 0 5 0 a2.5 2.5 0 1 0 -5 0zM1325 412.5 a2.5 2.5 0 1 0 5 0 a2.5 2.5 0 1 0 -5 0z" fill="rgba(235, 235, 235, 0.5)"></path><path d="M322.5 127.5L232.5 127.5" stroke-width="2.5" stroke="rgba(235, 235, 235, 0.5)"></path><path d="M320 127.5 a2.5 2.5 0 1 0 5 0 a2.5 2.5 0 1 0 -5 0zM230 127.5 a2.5 2.5 0 1 0 5 0 a2.5 2.5 0 1 0 -5 0z" fill="rgba(235, 235, 235, 0.5)"></path><path d="M157.5 37.5L187.5 37.5L202.5 52.5L247.5 52.5" stroke-width="2.5" stroke="rgba(235, 235, 235, 0.5)"></path><path d="M155 37.5 a2.5 2.5 0 1 0 5 0 a2.5 2.5 0 1 0 -5 0zM245 52.5 a2.5 2.5 0 1 0 5 0 a2.5 2.5 0 1 0 -5 0z" fill="rgba(235, 235, 235, 0.5)"></path><path d="M1312.5 202.5L1252.5 262.5L1237.5 262.5L1192.5 217.5" stroke-width="2.5" stroke="rgba(235, 235, 235, 0.5)"></path><path d="M1310 202.5 a2.5 2.5 0 1 0 5 0 a2.5 2.5 0 1 0 -5 0zM1190 217.5 a2.5 2.5 0 1 0 5 0 a2.5 2.5 0 1 0 -5 0z" fill="rgba(235, 235, 235, 0.5)"></path><path d="M142.5 532.5L127.5 532.5L112.5 517.5" stroke-width="2.5" stroke="rgba(235, 235, 235, 0.5)"></path><path d="M140 532.5 a2.5 2.5 0 1 0 5 0 a2.5 2.5 0 1 0 -5 0zM110 517.5 a2.5 2.5 0 1 0 5 0 a2.5 2.5 0 1 0 -5 0z" fill="rgba(235, 235, 235, 0.5)"></path><path d="M1057.5 397.5L952.5 397.5L937.5 382.5" stroke-width="2.5" stroke="rgba(235, 235, 235, 0.5)"></path><path d="M1055 397.5 a2.5 2.5 0 1 0 5 0 a2.5 2.5 0 1 0 -5 0zM935 382.5 a2.5 2.5 0 1 0 5 0 a2.5 2.5 0 1 0 -5 0z" fill="rgba(235, 235, 235, 0.5)"></path><path d="M577.5 202.5L622.5 157.5L637.5 157.5L652.5 172.5L652.5 187.5" stroke-width="2.5" stroke="rgba(235, 235, 235, 0.5)"></path><path d="M575 202.5 a2.5 2.5 0 1 0 5 0 a2.5 2.5 0 1 0 -5 0zM650 187.5 a2.5 2.5 0 1 0 5 0 a2.5 2.5 0 1 0 -5 0z" fill="rgba(235, 235, 235, 0.5)"></path><path d="M67.5 82.5L127.5 82.5" stroke-width="2.5" stroke="rgba(235, 235, 235, 0.5)"></path><path d="M65 82.5 a2.5 2.5 0 1 0 5 0 a2.5 2.5 0 1 0 -5 0zM125 82.5 a2.5 2.5 0 1 0 5 0 a2.5 2.5 0 1 0 -5 0z" fill="rgba(235, 235, 235, 0.5)"></path><path d="M592.5 547.5L577.5 532.5L577.5 457.5L607.5 427.5L607.5 412.5" stroke-width="2.5" stroke="rgba(235, 235, 235, 0.5)"></path><path d="M590 547.5 a2.5 2.5 0 1 0 5 0 a2.5 2.5 0 1 0 -5 0zM605 412.5 a2.5 2.5 0 1 0 5 0 a2.5 2.5 0 1 0 -5 0z" fill="rgba(235, 235, 235, 0.5)"></path><path d="M1087.5 67.5L1102.5 67.5L1117.5 52.5" stroke-width="2.5" stroke="rgba(235, 235, 235, 0.5)"></path><path d="M1085 67.5 a2.5 2.5 0 1 0 5 0 a2.5 2.5 0 1 0 -5 0zM1115 52.5 a2.5 2.5 0 1 0 5 0 a2.5 2.5 0 1 0 -5 0z" fill="rgba(235, 235, 235, 0.5)"></path><path d="M1237.5 382.5L1162.5 457.5" stroke-width="2.5" stroke="rgba(235, 235, 235, 0.5)"></path><path d="M1235 382.5 a2.5 2.5 0 1 0 5 0 a2.5 2.5 0 1 0 -5 0zM1160 457.5 a2.5 2.5 0 1 0 5 0 a2.5 2.5 0 1 0 -5 0z" fill="rgba(235, 235, 235, 0.5)"></path><path d="M697.5 352.5L667.5 322.5L637.5 322.5" stroke-width="2.5" stroke="rgba(235, 235, 235, 0.5)"></path><path d="M695 352.5 a2.5 2.5 0 1 0 5 0 a2.5 2.5 0 1 0 -5 0zM635 322.5 a2.5 2.5 0 1 0 5 0 a2.5 2.5 0 1 0 -5 0z" fill="rgba(235, 235, 235, 0.5)"></path><path d="M712.5 382.5L727.5 382.5L757.5 352.5L772.5 352.5L817.5 397.5L817.5 412.5" stroke-width="2.5" stroke="rgba(235, 235, 235, 0.5)"></path><path d="M710 382.5 a2.5 2.5 0 1 0 5 0 a2.5 2.5 0 1 0 -5 0zM815 412.5 a2.5 2.5 0 1 0 5 0 a2.5 2.5 0 1 0 -5 0z" fill="rgba(235, 235, 235, 0.5)"></path><path d="M592.5 487.5L622.5 517.5L637.5 517.5L652.5 502.5L652.5 472.5L637.5 457.5L592.5 457.5" stroke-width="2.5" stroke="rgba(235, 235, 235, 0.5)"></path><path d="M590 487.5 a2.5 2.5 0 1 0 5 0 a2.5 2.5 0 1 0 -5 0zM590 457.5 a2.5 2.5 0 1 0 5 0 a2.5 2.5 0 1 0 -5 0z" fill="rgba(235, 235, 235, 0.5)"></path><path d="M22.5 517.5L22.5 532.5L52.5 562.5L82.5 562.5" stroke-width="2.5" stroke="rgba(235, 235, 235, 0.5)"></path><path d="M20 517.5 a2.5 2.5 0 1 0 5 0 a2.5 2.5 0 1 0 -5 0zM80 562.5 a2.5 2.5 0 1 0 5 0 a2.5 2.5 0 1 0 -5 0z" fill="rgba(235, 235, 235, 0.5)"></path><path d="M757.5 202.5L817.5 202.5L832.5 217.5L832.5 247.5" stroke-width="2.5" stroke="rgba(235, 235, 235, 0.5)"></path><path d="M755 202.5 a2.5 2.5 0 1 0 5 0 a2.5 2.5 0 1 0 -5 0zM830 247.5 a2.5 2.5 0 1 0 5 0 a2.5 2.5 0 1 0 -5 0z" fill="rgba(235, 235, 235, 0.5)"></path><path d="M1012.5 112.5L1042.5 82.5" stroke-width="2.5" stroke="rgba(235, 235, 235, 0.5)"></path><path d="M1010 112.5 a2.5 2.5 0 1 0 5 0 a2.5 2.5 0 1 0 -5 0zM1040 82.5 a2.5 2.5 0 1 0 5 0 a2.5 2.5 0 1 0 -5 0z" fill="rgba(235, 235, 235, 0.5)"></path><path d="M487.5 457.5L472.5 442.5L472.5 427.5" stroke-width="2.5" stroke="rgba(235, 235, 235, 0.5)"></path><path d="M485 457.5 a2.5 2.5 0 1 0 5 0 a2.5 2.5 0 1 0 -5 0zM470 427.5 a2.5 2.5 0 1 0 5 0 a2.5 2.5 0 1 0 -5 0z" fill="rgba(235, 235, 235, 0.5)"></path><path d="M892.5 82.5L877.5 82.5L862.5 67.5L862.5 52.5L877.5 37.5" stroke-width="2.5" stroke="rgba(235, 235, 235, 0.5)"></path><path d="M890 82.5 a2.5 2.5 0 1 0 5 0 a2.5 2.5 0 1 0 -5 0zM875 37.5 a2.5 2.5 0 1 0 5 0 a2.5 2.5 0 1 0 -5 0z" fill="rgba(235, 235, 235, 0.5)"></path><path d="M412.5 277.5L442.5 307.5L457.5 307.5L472.5 292.5L472.5 262.5L442.5 232.5" stroke-width="2.5" stroke="rgba(235, 235, 235, 0.5)"></path><path d="M410 277.5 a2.5 2.5 0 1 0 5 0 a2.5 2.5 0 1 0 -5 0zM440 232.5 a2.5 2.5 0 1 0 5 0 a2.5 2.5 0 1 0 -5 0z" fill="rgba(235, 235, 235, 0.5)"></path><path d="M577.5 97.5L547.5 67.5L532.5 67.5" stroke-width="2.5" stroke="rgba(235, 235, 235, 0.5)"></path><path d="M575 97.5 a2.5 2.5 0 1 0 5 0 a2.5 2.5 0 1 0 -5 0zM530 67.5 a2.5 2.5 0 1 0 5 0 a2.5 2.5 0 1 0 -5 0z" fill="rgba(235, 235, 235, 0.5)"></path><path d="M112.5 472.5L127.5 487.5L157.5 487.5L172.5 502.5" stroke-width="2.5" stroke="rgba(235, 235, 235, 0.5)"></path><path d="M110 472.5 a2.5 2.5 0 1 0 5 0 a2.5 2.5 0 1 0 -5 0zM170 502.5 a2.5 2.5 0 1 0 5 0 a2.5 2.5 0 1 0 -5 0z" fill="rgba(235, 235, 235, 0.5)"></path><path d="M847.5 427.5L862.5 427.5L892.5 457.5L892.5 472.5" stroke-width="2.5" stroke="rgba(235, 235, 235, 0.5)"></path><path d="M845 427.5 a2.5 2.5 0 1 0 5 0 a2.5 2.5 0 1 0 -5 0zM890 472.5 a2.5 2.5 0 1 0 5 0 a2.5 2.5 0 1 0 -5 0z" fill="rgba(235, 235, 235, 0.5)"></path><path d="M1387.5 547.5L1402.5 532.5L1402.5 517.5" stroke-width="2.5" stroke="rgba(235, 235, 235, 0.5)"></path><path d="M1385 547.5 a2.5 2.5 0 1 0 5 0 a2.5 2.5 0 1 0 -5 0zM1400 517.5 a2.5 2.5 0 1 0 5 0 a2.5 2.5 0 1 0 -5 0z" fill="rgba(235, 235, 235, 0.5)"></path><path d="M1162.5 157.5L1192.5 127.5" stroke-width="2.5" stroke="rgba(235, 235, 235, 0.5)"></path><path d="M1160 157.5 a2.5 2.5 0 1 0 5 0 a2.5 2.5 0 1 0 -5 0zM1190 127.5 a2.5 2.5 0 1 0 5 0 a2.5 2.5 0 1 0 -5 0z" fill="rgba(235, 235, 235, 0.5)"></path><path d="M1312.5 457.5L1267.5 502.5L1252.5 502.5L1237.5 487.5" stroke-width="2.5" stroke="rgba(235, 235, 235, 0.5)"></path><path d="M1310 457.5 a2.5 2.5 0 1 0 5 0 a2.5 2.5 0 1 0 -5 0zM1235 487.5 a2.5 2.5 0 1 0 5 0 a2.5 2.5 0 1 0 -5 0z" fill="rgba(235, 235, 235, 0.5)"></path><path d="M922.5 412.5L922.5 442.5" stroke-width="2.5" stroke="rgba(235, 235, 235, 0.5)"></path><path d="M920 412.5 a2.5 2.5 0 1 0 5 0 a2.5 2.5 0 1 0 -5 0zM920 442.5 a2.5 2.5 0 1 0 5 0 a2.5 2.5 0 1 0 -5 0z" fill="rgba(235, 235, 235, 0.5)"></path><path d="M112.5 262.5L97.5 277.5L97.5 292.5" stroke-width="2.5" stroke="rgba(235, 235, 235, 0.5)"></path><path d="M110 262.5 a2.5 2.5 0 1 0 5 0 a2.5 2.5 0 1 0 -5 0zM95 292.5 a2.5 2.5 0 1 0 5 0 a2.5 2.5 0 1 0 -5 0z" fill="rgba(235, 235, 235, 0.5)"></path><path d="M1087.5 157.5L1072.5 172.5L1057.5 172.5" stroke-width="2.5" stroke="rgba(235, 235, 235, 0.5)"></path><path d="M1085 157.5 a2.5 2.5 0 1 0 5 0 a2.5 2.5 0 1 0 -5 0zM1055 172.5 a2.5 2.5 0 1 0 5 0 a2.5 2.5 0 1 0 -5 0z" fill="rgba(235, 235, 235, 0.5)"></path><path d="M322.5 397.5L352.5 427.5L352.5 442.5" stroke-width="2.5" stroke="rgba(235, 235, 235, 0.5)"></path><path d="M320 397.5 a2.5 2.5 0 1 0 5 0 a2.5 2.5 0 1 0 -5 0zM350 442.5 a2.5 2.5 0 1 0 5 0 a2.5 2.5 0 1 0 -5 0z" fill="rgba(235, 235, 235, 0.5)"></path><path d="M232.5 187.5L247.5 172.5L262.5 172.5L292.5 202.5L292.5 232.5L277.5 247.5" stroke-width="2.5" stroke="rgba(235, 235, 235, 0.5)"></path><path d="M230 187.5 a2.5 2.5 0 1 0 5 0 a2.5 2.5 0 1 0 -5 0zM275 247.5 a2.5 2.5 0 1 0 5 0 a2.5 2.5 0 1 0 -5 0z" fill="rgba(235, 235, 235, 0.5)"></path><path d="M67.5 52.5L37.5 82.5" stroke-width="2.5" stroke="rgba(235, 235, 235, 0.5)"></path><path d="M65 52.5 a2.5 2.5 0 1 0 5 0 a2.5 2.5 0 1 0 -5 0zM35 82.5 a2.5 2.5 0 1 0 5 0 a2.5 2.5 0 1 0 -5 0z" fill="rgba(235, 235, 235, 0.5)"></path><path d="M127.5 7.5L292.5 7.5" stroke-width="2.5" stroke="rgba(235, 235, 235, 0.5)"></path><path d="M125 7.5 a2.5 2.5 0 1 0 5 0 a2.5 2.5 0 1 0 -5 0zM290 7.5 a2.5 2.5 0 1 0 5 0 a2.5 2.5 0 1 0 -5 0z" fill="rgba(235, 235, 235, 0.5)"></path><path d="M1267.5 262.5L1342.5 262.5L1357.5 247.5L1372.5 247.5" stroke-width="2.5" stroke="rgba(235, 235, 235, 0.5)"></path><path d="M1265 262.5 a2.5 2.5 0 1 0 5 0 a2.5 2.5 0 1 0 -5 0zM1370 247.5 a2.5 2.5 0 1 0 5 0 a2.5 2.5 0 1 0 -5 0z" fill="rgba(235, 235, 235, 0.5)"></path><path d="M277.5 412.5L262.5 412.5L247.5 397.5" stroke-width="2.5" stroke="rgba(235, 235, 235, 0.5)"></path><path d="M275 412.5 a2.5 2.5 0 1 0 5 0 a2.5 2.5 0 1 0 -5 0zM245 397.5 a2.5 2.5 0 1 0 5 0 a2.5 2.5 0 1 0 -5 0z" fill="rgba(235, 235, 235, 0.5)"></path><path d="M1282.5 457.5L1252.5 487.5" stroke-width="2.5" stroke="rgba(235, 235, 235, 0.5)"></path><path d="M1280 457.5 a2.5 2.5 0 1 0 5 0 a2.5 2.5 0 1 0 -5 0zM1250 487.5 a2.5 2.5 0 1 0 5 0 a2.5 2.5 0 1 0 -5 0z" fill="rgba(235, 235, 235, 0.5)"></path><path d="M187.5 397.5L172.5 412.5L157.5 412.5L127.5 382.5" stroke-width="2.5" stroke="rgba(235, 235, 235, 0.5)"></path><path d="M185 397.5 a2.5 2.5 0 1 0 5 0 a2.5 2.5 0 1 0 -5 0zM125 382.5 a2.5 2.5 0 1 0 5 0 a2.5 2.5 0 1 0 -5 0z" fill="rgba(235, 235, 235, 0.5)"></path><path d="M907.5 397.5L907.5 427.5" stroke-width="2.5" stroke="rgba(235, 235, 235, 0.5)"></path><path d="M905 397.5 a2.5 2.5 0 1 0 5 0 a2.5 2.5 0 1 0 -5 0zM905 427.5 a2.5 2.5 0 1 0 5 0 a2.5 2.5 0 1 0 -5 0z" fill="rgba(235, 235, 235, 0.5)"></path><path d="M1222.5 112.5L1222.5 82.5" stroke-width="2.5" stroke="rgba(235, 235, 235, 0.5)"></path><path d="M1220 112.5 a2.5 2.5 0 1 0 5 0 a2.5 2.5 0 1 0 -5 0zM1220 82.5 a2.5 2.5 0 1 0 5 0 a2.5 2.5 0 1 0 -5 0z" fill="rgba(235, 235, 235, 0.5)"></path><path d="M817.5 112.5L847.5 112.5L862.5 127.5" stroke-width="2.5" stroke="rgba(235, 235, 235, 0.5)"></path><path d="M815 112.5 a2.5 2.5 0 1 0 5 0 a2.5 2.5 0 1 0 -5 0zM860 127.5 a2.5 2.5 0 1 0 5 0 a2.5 2.5 0 1 0 -5 0z" fill="rgba(235, 235, 235, 0.5)"></path><path d="M607.5 7.5L727.5 7.5" stroke-width="2.5" stroke="rgba(235, 235, 235, 0.5)"></path><path d="M605 7.5 a2.5 2.5 0 1 0 5 0 a2.5 2.5 0 1 0 -5 0zM725 7.5 a2.5 2.5 0 1 0 5 0 a2.5 2.5 0 1 0 -5 0z" fill="rgba(235, 235, 235, 0.5)"></path><path d="M442.5 247.5L427.5 247.5L412.5 262.5" stroke-width="2.5" stroke="rgba(235, 235, 235, 0.5)"></path><path d="M440 247.5 a2.5 2.5 0 1 0 5 0 a2.5 2.5 0 1 0 -5 0zM410 262.5 a2.5 2.5 0 1 0 5 0 a2.5 2.5 0 1 0 -5 0z" fill="rgba(235, 235, 235, 0.5)"></path><path d="M847.5 157.5L847.5 127.5" stroke-width="2.5" stroke="rgba(235, 235, 235, 0.5)"></path><path d="M845 157.5 a2.5 2.5 0 1 0 5 0 a2.5 2.5 0 1 0 -5 0zM845 127.5 a2.5 2.5 0 1 0 5 0 a2.5 2.5 0 1 0 -5 0z" fill="rgba(235, 235, 235, 0.5)"></path><path d="M787.5 172.5L757.5 172.5" stroke-width="2.5" stroke="rgba(235, 235, 235, 0.5)"></path><path d="M785 172.5 a2.5 2.5 0 1 0 5 0 a2.5 2.5 0 1 0 -5 0zM755 172.5 a2.5 2.5 0 1 0 5 0 a2.5 2.5 0 1 0 -5 0z" fill="rgba(235, 235, 235, 0.5)"></path><path d="M1342.5 127.5L1372.5 127.5" stroke-width="2.5" stroke="rgba(235, 235, 235, 0.5)"></path><path d="M1340 127.5 a2.5 2.5 0 1 0 5 0 a2.5 2.5 0 1 0 -5 0zM1370 127.5 a2.5 2.5 0 1 0 5 0 a2.5 2.5 0 1 0 -5 0z" fill="rgba(235, 235, 235, 0.5)"></path><path d="M502.5 172.5L472.5 172.5" stroke-width="2.5" stroke="rgba(235, 235, 235, 0.5)"></path><path d="M500 172.5 a2.5 2.5 0 1 0 5 0 a2.5 2.5 0 1 0 -5 0zM470 172.5 a2.5 2.5 0 1 0 5 0 a2.5 2.5 0 1 0 -5 0z" fill="rgba(235, 235, 235, 0.5)"></path><path d="M952.5 247.5L967.5 247.5L982.5 262.5" stroke-width="2.5" stroke="rgba(235, 235, 235, 0.5)"></path><path d="M950 247.5 a2.5 2.5 0 1 0 5 0 a2.5 2.5 0 1 0 -5 0zM980 262.5 a2.5 2.5 0 1 0 5 0 a2.5 2.5 0 1 0 -5 0z" fill="rgba(235, 235, 235, 0.5)"></path><path d="M442.5 52.5L457.5 52.5L472.5 67.5L472.5 97.5" stroke-width="2.5" stroke="rgba(235, 235, 235, 0.5)"></path><path d="M440 52.5 a2.5 2.5 0 1 0 5 0 a2.5 2.5 0 1 0 -5 0zM470 97.5 a2.5 2.5 0 1 0 5 0 a2.5 2.5 0 1 0 -5 0z" fill="rgba(235, 235, 235, 0.5)"></path><path d="M262.5 472.5L247.5 487.5L232.5 487.5" stroke-width="2.5" stroke="rgba(235, 235, 235, 0.5)"></path><path d="M260 472.5 a2.5 2.5 0 1 0 5 0 a2.5 2.5 0 1 0 -5 0zM230 487.5 a2.5 2.5 0 1 0 5 0 a2.5 2.5 0 1 0 -5 0z" fill="rgba(235, 235, 235, 0.5)"></path><path d="M967.5 142.5L967.5 127.5L952.5 112.5" stroke-width="2.5" stroke="rgba(235, 235, 235, 0.5)"></path><path d="M965 142.5 a2.5 2.5 0 1 0 5 0 a2.5 2.5 0 1 0 -5 0zM950 112.5 a2.5 2.5 0 1 0 5 0 a2.5 2.5 0 1 0 -5 0z" fill="rgba(235, 235, 235, 0.5)"></path><path d="M1387.5 172.5L1402.5 187.5L1402.5 202.5" stroke-width="2.5" stroke="rgba(235, 235, 235, 0.5)"></path><path d="M1385 172.5 a2.5 2.5 0 1 0 5 0 a2.5 2.5 0 1 0 -5 0zM1400 202.5 a2.5 2.5 0 1 0 5 0 a2.5 2.5 0 1 0 -5 0z" fill="rgba(235, 235, 235, 0.5)"></path><path d="M472.5 22.5L457.5 22.5L442.5 7.5L412.5 7.5" stroke-width="2.5" stroke="rgba(235, 235, 235, 0.5)"></path><path d="M470 22.5 a2.5 2.5 0 1 0 5 0 a2.5 2.5 0 1 0 -5 0zM410 7.5 a2.5 2.5 0 1 0 5 0 a2.5 2.5 0 1 0 -5 0z" fill="rgba(235, 235, 235, 0.5)"></path><path d="M232.5 307.5L262.5 307.5" stroke-width="2.5" stroke="rgba(235, 235, 235, 0.5)"></path><path d="M230 307.5 a2.5 2.5 0 1 0 5 0 a2.5 2.5 0 1 0 -5 0zM260 307.5 a2.5 2.5 0 1 0 5 0 a2.5 2.5 0 1 0 -5 0z" fill="rgba(235, 235, 235, 0.5)"></path><path d="M367.5 187.5L382.5 187.5L412.5 157.5" stroke-width="2.5" stroke="rgba(235, 235, 235, 0.5)"></path><path d="M365 187.5 a2.5 2.5 0 1 0 5 0 a2.5 2.5 0 1 0 -5 0zM410 157.5 a2.5 2.5 0 1 0 5 0 a2.5 2.5 0 1 0 -5 0z" fill="rgba(235, 235, 235, 0.5)"></path><path d="M1177.5 187.5L1162.5 187.5L1147.5 172.5L1147.5 157.5" stroke-width="2.5" stroke="rgba(235, 235, 235, 0.5)"></path><path d="M1175 187.5 a2.5 2.5 0 1 0 5 0 a2.5 2.5 0 1 0 -5 0zM1145 157.5 a2.5 2.5 0 1 0 5 0 a2.5 2.5 0 1 0 -5 0z" fill="rgba(235, 235, 235, 0.5)"></path><path d="M1237.5 172.5L1252.5 172.5L1267.5 187.5" stroke-width="2.5" stroke="rgba(235, 235, 235, 0.5)"></path><path d="M1235 172.5 a2.5 2.5 0 1 0 5 0 a2.5 2.5 0 1 0 -5 0zM1265 187.5 a2.5 2.5 0 1 0 5 0 a2.5 2.5 0 1 0 -5 0z" fill="rgba(235, 235, 235, 0.5)"></path><path d="M667.5 217.5L667.5 292.5" stroke-width="2.5" stroke="rgba(235, 235, 235, 0.5)"></path><path d="M665 217.5 a2.5 2.5 0 1 0 5 0 a2.5 2.5 0 1 0 -5 0zM665 292.5 a2.5 2.5 0 1 0 5 0 a2.5 2.5 0 1 0 -5 0z" fill="rgba(235, 235, 235, 0.5)"></path><path d="M1282.5 37.5L1267.5 52.5L1252.5 52.5" stroke-width="2.5" stroke="rgba(235, 235, 235, 0.5)"></path><path d="M1280 37.5 a2.5 2.5 0 1 0 5 0 a2.5 2.5 0 1 0 -5 0zM1250 52.5 a2.5 2.5 0 1 0 5 0 a2.5 2.5 0 1 0 -5 0z" fill="rgba(235, 235, 235, 0.5)"></path><path d="M877.5 472.5L847.5 442.5" stroke-width="2.5" stroke="rgba(235, 235, 235, 0.5)"></path><path d="M875 472.5 a2.5 2.5 0 1 0 5 0 a2.5 2.5 0 1 0 -5 0zM845 442.5 a2.5 2.5 0 1 0 5 0 a2.5 2.5 0 1 0 -5 0z" fill="rgba(235, 235, 235, 0.5)"></path><path d="M1252.5 367.5L1267.5 382.5L1267.5 397.5L1252.5 412.5" stroke-width="2.5" stroke="rgba(235, 235, 235, 0.5)"></path><path d="M1250 367.5 a2.5 2.5 0 1 0 5 0 a2.5 2.5 0 1 0 -5 0zM1250 412.5 a2.5 2.5 0 1 0 5 0 a2.5 2.5 0 1 0 -5 0z" fill="rgba(235, 235, 235, 0.5)"></path><path d="M592.5 412.5L577.5 427.5L577.5 442.5" stroke-width="2.5" stroke="rgba(235, 235, 235, 0.5)"></path><path d="M590 412.5 a2.5 2.5 0 1 0 5 0 a2.5 2.5 0 1 0 -5 0zM575 442.5 a2.5 2.5 0 1 0 5 0 a2.5 2.5 0 1 0 -5 0z" fill="rgba(235, 235, 235, 0.5)"></path><path d="M1402.5 22.5L1312.5 22.5" stroke-width="2.5" stroke="rgba(235, 235, 235, 0.5)"></path><path d="M1400 22.5 a2.5 2.5 0 1 0 5 0 a2.5 2.5 0 1 0 -5 0zM1310 22.5 a2.5 2.5 0 1 0 5 0 a2.5 2.5 0 1 0 -5 0z" fill="rgba(235, 235, 235, 0.5)"></path><path d="M502.5 457.5L517.5 442.5L517.5 427.5" stroke-width="2.5" stroke="rgba(235, 235, 235, 0.5)"></path><path d="M500 457.5 a2.5 2.5 0 1 0 5 0 a2.5 2.5 0 1 0 -5 0zM515 427.5 a2.5 2.5 0 1 0 5 0 a2.5 2.5 0 1 0 -5 0z" fill="rgba(235, 235, 235, 0.5)"></path><path d="M142.5 517.5L157.5 532.5L172.5 532.5" stroke-width="2.5" stroke="rgba(235, 235, 235, 0.5)"></path><path d="M140 517.5 a2.5 2.5 0 1 0 5 0 a2.5 2.5 0 1 0 -5 0zM170 532.5 a2.5 2.5 0 1 0 5 0 a2.5 2.5 0 1 0 -5 0z" fill="rgba(235, 235, 235, 0.5)"></path><path d="M382.5 547.5L397.5 562.5L442.5 562.5" stroke-width="2.5" stroke="rgba(235, 235, 235, 0.5)"></path><path d="M380 547.5 a2.5 2.5 0 1 0 5 0 a2.5 2.5 0 1 0 -5 0zM440 562.5 a2.5 2.5 0 1 0 5 0 a2.5 2.5 0 1 0 -5 0z" fill="rgba(235, 235, 235, 0.5)"></path><path d="M907.5 67.5L892.5 52.5L877.5 52.5" stroke-width="2.5" stroke="rgba(235, 235, 235, 0.5)"></path><path d="M905 67.5 a2.5 2.5 0 1 0 5 0 a2.5 2.5 0 1 0 -5 0zM875 52.5 a2.5 2.5 0 1 0 5 0 a2.5 2.5 0 1 0 -5 0z" fill="rgba(235, 235, 235, 0.5)"></path><path d="M697.5 172.5L697.5 127.5" stroke-width="2.5" stroke="rgba(235, 235, 235, 0.5)"></path><path d="M695 172.5 a2.5 2.5 0 1 0 5 0 a2.5 2.5 0 1 0 -5 0zM695 127.5 a2.5 2.5 0 1 0 5 0 a2.5 2.5 0 1 0 -5 0z" fill="rgba(235, 235, 235, 0.5)"></path><path d="M97.5 472.5L127.5 442.5" stroke-width="2.5" stroke="rgba(235, 235, 235, 0.5)"></path><path d="M95 472.5 a2.5 2.5 0 1 0 5 0 a2.5 2.5 0 1 0 -5 0zM125 442.5 a2.5 2.5 0 1 0 5 0 a2.5 2.5 0 1 0 -5 0z" fill="rgba(235, 235, 235, 0.5)"></path><path d="M112.5 7.5L22.5 7.5" stroke-width="2.5" stroke="rgba(235, 235, 235, 0.5)"></path><path d="M110 7.5 a2.5 2.5 0 1 0 5 0 a2.5 2.5 0 1 0 -5 0zM20 7.5 a2.5 2.5 0 1 0 5 0 a2.5 2.5 0 1 0 -5 0z" fill="rgba(235, 235, 235, 0.5)"></path><path d="M1192.5 172.5L1207.5 187.5L1252.5 187.5" stroke-width="2.5" stroke="rgba(235, 235, 235, 0.5)"></path><path d="M1190 172.5 a2.5 2.5 0 1 0 5 0 a2.5 2.5 0 1 0 -5 0zM1250 187.5 a2.5 2.5 0 1 0 5 0 a2.5 2.5 0 1 0 -5 0z" fill="rgba(235, 235, 235, 0.5)"></path><path d="M952.5 427.5L952.5 442.5L997.5 487.5" stroke-width="2.5" stroke="rgba(235, 235, 235, 0.5)"></path><path d="M950 427.5 a2.5 2.5 0 1 0 5 0 a2.5 2.5 0 1 0 -5 0zM995 487.5 a2.5 2.5 0 1 0 5 0 a2.5 2.5 0 1 0 -5 0z" fill="rgba(235, 235, 235, 0.5)"></path><path d="M1117.5 337.5L1147.5 367.5" stroke-width="2.5" stroke="rgba(235, 235, 235, 0.5)"></path><path d="M1115 337.5 a2.5 2.5 0 1 0 5 0 a2.5 2.5 0 1 0 -5 0zM1145 367.5 a2.5 2.5 0 1 0 5 0 a2.5 2.5 0 1 0 -5 0z" fill="rgba(235, 235, 235, 0.5)"></path><path d="M622.5 292.5L622.5 232.5" stroke-width="2.5" stroke="rgba(235, 235, 235, 0.5)"></path><path d="M620 292.5 a2.5 2.5 0 1 0 5 0 a2.5 2.5 0 1 0 -5 0zM620 232.5 a2.5 2.5 0 1 0 5 0 a2.5 2.5 0 1 0 -5 0z" fill="rgba(235, 235, 235, 0.5)"></path><path d="M667.5 472.5L637.5 442.5L637.5 427.5" stroke-width="2.5" stroke="rgba(235, 235, 235, 0.5)"></path><path d="M665 472.5 a2.5 2.5 0 1 0 5 0 a2.5 2.5 0 1 0 -5 0zM635 427.5 a2.5 2.5 0 1 0 5 0 a2.5 2.5 0 1 0 -5 0z" fill="rgba(235, 235, 235, 0.5)"></path><path d="M982.5 442.5L982.5 457.5L997.5 472.5L1012.5 472.5" stroke-width="2.5" stroke="rgba(235, 235, 235, 0.5)"></path><path d="M980 442.5 a2.5 2.5 0 1 0 5 0 a2.5 2.5 0 1 0 -5 0zM1010 472.5 a2.5 2.5 0 1 0 5 0 a2.5 2.5 0 1 0 -5 0z" fill="rgba(235, 235, 235, 0.5)"></path><path d="M1237.5 217.5L1237.5 247.5" stroke-width="2.5" stroke="rgba(235, 235, 235, 0.5)"></path><path d="M1235 217.5 a2.5 2.5 0 1 0 5 0 a2.5 2.5 0 1 0 -5 0zM1235 247.5 a2.5 2.5 0 1 0 5 0 a2.5 2.5 0 1 0 -5 0z" fill="rgba(235, 235, 235, 0.5)"></path><path d="M7.5 547.5L7.5 517.5" stroke-width="2.5" stroke="rgba(235, 235, 235, 0.5)"></path><path d="M5 547.5 a2.5 2.5 0 1 0 5 0 a2.5 2.5 0 1 0 -5 0zM5 517.5 a2.5 2.5 0 1 0 5 0 a2.5 2.5 0 1 0 -5 0z" fill="rgba(235, 235, 235, 0.5)"></path><path d="M607.5 352.5L592.5 337.5L592.5 307.5L562.5 277.5" stroke-width="2.5" stroke="rgba(235, 235, 235, 0.5)"></path><path d="M605 352.5 a2.5 2.5 0 1 0 5 0 a2.5 2.5 0 1 0 -5 0zM560 277.5 a2.5 2.5 0 1 0 5 0 a2.5 2.5 0 1 0 -5 0z" fill="rgba(235, 235, 235, 0.5)"></path><path d="M1117.5 532.5L1147.5 532.5" stroke-width="2.5" stroke="rgba(235, 235, 235, 0.5)"></path><path d="M1115 532.5 a2.5 2.5 0 1 0 5 0 a2.5 2.5 0 1 0 -5 0zM1145 532.5 a2.5 2.5 0 1 0 5 0 a2.5 2.5 0 1 0 -5 0z" fill="rgba(235, 235, 235, 0.5)"></path><path d="M1027.5 232.5L1042.5 247.5L1072.5 247.5" stroke-width="2.5" stroke="rgba(235, 235, 235, 0.5)"></path><path d="M1025 232.5 a2.5 2.5 0 1 0 5 0 a2.5 2.5 0 1 0 -5 0zM1070 247.5 a2.5 2.5 0 1 0 5 0 a2.5 2.5 0 1 0 -5 0z" fill="rgba(235, 235, 235, 0.5)"></path><path d="M1147.5 307.5L1177.5 277.5L1207.5 277.5L1222.5 292.5L1222.5 322.5L1207.5 337.5L1192.5 337.5L1177.5 322.5L1177.5 307.5L1192.5 292.5L1207.5 292.5" stroke-width="2.5" stroke="rgba(235, 235, 235, 0.5)"></path><path d="M1145 307.5 a2.5 2.5 0 1 0 5 0 a2.5 2.5 0 1 0 -5 0zM1205 292.5 a2.5 2.5 0 1 0 5 0 a2.5 2.5 0 1 0 -5 0z" fill="rgba(235, 235, 235, 0.5)"></path><path d="M1297.5 172.5L1282.5 157.5L1267.5 157.5" stroke-width="2.5" stroke="rgba(235, 235, 235, 0.5)"></path><path d="M1295 172.5 a2.5 2.5 0 1 0 5 0 a2.5 2.5 0 1 0 -5 0zM1265 157.5 a2.5 2.5 0 1 0 5 0 a2.5 2.5 0 1 0 -5 0z" fill="rgba(235, 235, 235, 0.5)"></path><path d="M1102.5 337.5L1132.5 367.5" stroke-width="2.5" stroke="rgba(235, 235, 235, 0.5)"></path><path d="M1100 337.5 a2.5 2.5 0 1 0 5 0 a2.5 2.5 0 1 0 -5 0zM1130 367.5 a2.5 2.5 0 1 0 5 0 a2.5 2.5 0 1 0 -5 0z" fill="rgba(235, 235, 235, 0.5)"></path><path d="M487.5 142.5L517.5 172.5L517.5 187.5" stroke-width="2.5" stroke="rgba(235, 235, 235, 0.5)"></path><path d="M485 142.5 a2.5 2.5 0 1 0 5 0 a2.5 2.5 0 1 0 -5 0zM515 187.5 a2.5 2.5 0 1 0 5 0 a2.5 2.5 0 1 0 -5 0z" fill="rgba(235, 235, 235, 0.5)"></path><path d="M307.5 532.5L307.5 502.5" stroke-width="2.5" stroke="rgba(235, 235, 235, 0.5)"></path><path d="M305 532.5 a2.5 2.5 0 1 0 5 0 a2.5 2.5 0 1 0 -5 0zM305 502.5 a2.5 2.5 0 1 0 5 0 a2.5 2.5 0 1 0 -5 0z" fill="rgba(235, 235, 235, 0.5)"></path><path d="M217.5 307.5L217.5 262.5" stroke-width="2.5" stroke="rgba(235, 235, 235, 0.5)"></path><path d="M215 307.5 a2.5 2.5 0 1 0 5 0 a2.5 2.5 0 1 0 -5 0zM215 262.5 a2.5 2.5 0 1 0 5 0 a2.5 2.5 0 1 0 -5 0z" fill="rgba(235, 235, 235, 0.5)"></path><path d="M127.5 472.5L157.5 472.5" stroke-width="2.5" stroke="rgba(235, 235, 235, 0.5)"></path><path d="M125 472.5 a2.5 2.5 0 1 0 5 0 a2.5 2.5 0 1 0 -5 0zM155 472.5 a2.5 2.5 0 1 0 5 0 a2.5 2.5 0 1 0 -5 0z" fill="rgba(235, 235, 235, 0.5)"></path><path d="M1132.5 502.5L1117.5 517.5L1087.5 517.5" stroke-width="2.5" stroke="rgba(235, 235, 235, 0.5)"></path><path d="M1130 502.5 a2.5 2.5 0 1 0 5 0 a2.5 2.5 0 1 0 -5 0zM1085 517.5 a2.5 2.5 0 1 0 5 0 a2.5 2.5 0 1 0 -5 0z" fill="rgba(235, 235, 235, 0.5)"></path><path d="M502.5 472.5L457.5 472.5" stroke-width="2.5" stroke="rgba(235, 235, 235, 0.5)"></path><path d="M500 472.5 a2.5 2.5 0 1 0 5 0 a2.5 2.5 0 1 0 -5 0zM455 472.5 a2.5 2.5 0 1 0 5 0 a2.5 2.5 0 1 0 -5 0z" fill="rgba(235, 235, 235, 0.5)"></path><path d="M937.5 232.5L967.5 202.5" stroke-width="2.5" stroke="rgba(235, 235, 235, 0.5)"></path><path d="M935 232.5 a2.5 2.5 0 1 0 5 0 a2.5 2.5 0 1 0 -5 0zM965 202.5 a2.5 2.5 0 1 0 5 0 a2.5 2.5 0 1 0 -5 0z" fill="rgba(235, 235, 235, 0.5)"></path><path d="M907.5 202.5L892.5 202.5L862.5 172.5L862.5 157.5" stroke-width="2.5" stroke="rgba(235, 235, 235, 0.5)"></path><path d="M905 202.5 a2.5 2.5 0 1 0 5 0 a2.5 2.5 0 1 0 -5 0zM860 157.5 a2.5 2.5 0 1 0 5 0 a2.5 2.5 0 1 0 -5 0z" fill="rgba(235, 235, 235, 0.5)"></path><path d="M262.5 187.5L277.5 202.5L277.5 217.5" stroke-width="2.5" stroke="rgba(235, 235, 235, 0.5)"></path><path d="M260 187.5 a2.5 2.5 0 1 0 5 0 a2.5 2.5 0 1 0 -5 0zM275 217.5 a2.5 2.5 0 1 0 5 0 a2.5 2.5 0 1 0 -5 0z" fill="rgba(235, 235, 235, 0.5)"></path><path d="M652.5 262.5L637.5 277.5L637.5 292.5" stroke-width="2.5" stroke="rgba(235, 235, 235, 0.5)"></path><path d="M650 262.5 a2.5 2.5 0 1 0 5 0 a2.5 2.5 0 1 0 -5 0zM635 292.5 a2.5 2.5 0 1 0 5 0 a2.5 2.5 0 1 0 -5 0z" fill="rgba(235, 235, 235, 0.5)"></path><path d="M1207.5 172.5L1192.5 157.5L1177.5 157.5L1162.5 172.5" stroke-width="2.5" stroke="rgba(235, 235, 235, 0.5)"></path><path d="M1205 172.5 a2.5 2.5 0 1 0 5 0 a2.5 2.5 0 1 0 -5 0zM1160 172.5 a2.5 2.5 0 1 0 5 0 a2.5 2.5 0 1 0 -5 0z" fill="rgba(235, 235, 235, 0.5)"></path><path d="M7.5 157.5L7.5 217.5" stroke-width="2.5" stroke="rgba(235, 235, 235, 0.5)"></path><path d="M5 157.5 a2.5 2.5 0 1 0 5 0 a2.5 2.5 0 1 0 -5 0zM5 217.5 a2.5 2.5 0 1 0 5 0 a2.5 2.5 0 1 0 -5 0z" fill="rgba(235, 235, 235, 0.5)"></path><path d="M292.5 142.5L262.5 142.5" stroke-width="2.5" stroke="rgba(235, 235, 235, 0.5)"></path><path d="M290 142.5 a2.5 2.5 0 1 0 5 0 a2.5 2.5 0 1 0 -5 0zM260 142.5 a2.5 2.5 0 1 0 5 0 a2.5 2.5 0 1 0 -5 0z" fill="rgba(235, 235, 235, 0.5)"></path><path d="M967.5 547.5L997.5 547.5" stroke-width="2.5" stroke="rgba(235, 235, 235, 0.5)"></path><path d="M965 547.5 a2.5 2.5 0 1 0 5 0 a2.5 2.5 0 1 0 -5 0zM995 547.5 a2.5 2.5 0 1 0 5 0 a2.5 2.5 0 1 0 -5 0z" fill="rgba(235, 235, 235, 0.5)"></path><path d="M1192.5 532.5L1222.5 532.5" stroke-width="2.5" stroke="rgba(235, 235, 235, 0.5)"></path><path d="M1190 532.5 a2.5 2.5 0 1 0 5 0 a2.5 2.5 0 1 0 -5 0zM1220 532.5 a2.5 2.5 0 1 0 5 0 a2.5 2.5 0 1 0 -5 0z" fill="rgba(235, 235, 235, 0.5)"></path><path d="M652.5 442.5L667.5 442.5L682.5 457.5L682.5 472.5" stroke-width="2.5" stroke="rgba(235, 235, 235, 0.5)"></path><path d="M650 442.5 a2.5 2.5 0 1 0 5 0 a2.5 2.5 0 1 0 -5 0zM680 472.5 a2.5 2.5 0 1 0 5 0 a2.5 2.5 0 1 0 -5 0z" fill="rgba(235, 235, 235, 0.5)"></path><path d="M1147.5 277.5L1132.5 292.5L1117.5 292.5" stroke-width="2.5" stroke="rgba(235, 235, 235, 0.5)"></path><path d="M1145 277.5 a2.5 2.5 0 1 0 5 0 a2.5 2.5 0 1 0 -5 0zM1115 292.5 a2.5 2.5 0 1 0 5 0 a2.5 2.5 0 1 0 -5 0z" fill="rgba(235, 235, 235, 0.5)"></path><path d="M112.5 52.5L82.5 52.5" stroke-width="2.5" stroke="rgba(235, 235, 235, 0.5)"></path><path d="M110 52.5 a2.5 2.5 0 1 0 5 0 a2.5 2.5 0 1 0 -5 0zM80 52.5 a2.5 2.5 0 1 0 5 0 a2.5 2.5 0 1 0 -5 0z" fill="rgba(235, 235, 235, 0.5)"></path><path d="M922.5 82.5L922.5 142.5" stroke-width="2.5" stroke="rgba(235, 235, 235, 0.5)"></path><path d="M920 82.5 a2.5 2.5 0 1 0 5 0 a2.5 2.5 0 1 0 -5 0zM920 142.5 a2.5 2.5 0 1 0 5 0 a2.5 2.5 0 1 0 -5 0z" fill="rgba(235, 235, 235, 0.5)"></path><path d="M322.5 82.5L337.5 82.5L352.5 67.5" stroke-width="2.5" stroke="rgba(235, 235, 235, 0.5)"></path><path d="M320 82.5 a2.5 2.5 0 1 0 5 0 a2.5 2.5 0 1 0 -5 0zM350 67.5 a2.5 2.5 0 1 0 5 0 a2.5 2.5 0 1 0 -5 0z" fill="rgba(235, 235, 235, 0.5)"></path><path d="M532.5 82.5L547.5 82.5L577.5 112.5L592.5 112.5" stroke-width="2.5" stroke="rgba(235, 235, 235, 0.5)"></path><path d="M530 82.5 a2.5 2.5 0 1 0 5 0 a2.5 2.5 0 1 0 -5 0zM590 112.5 a2.5 2.5 0 1 0 5 0 a2.5 2.5 0 1 0 -5 0z" fill="rgba(235, 235, 235, 0.5)"></path><path d="M292.5 262.5L337.5 262.5" stroke-width="2.5" stroke="rgba(235, 235, 235, 0.5)"></path><path d="M290 262.5 a2.5 2.5 0 1 0 5 0 a2.5 2.5 0 1 0 -5 0zM335 262.5 a2.5 2.5 0 1 0 5 0 a2.5 2.5 0 1 0 -5 0z" fill="rgba(235, 235, 235, 0.5)"></path><path d="M502.5 7.5L502.5 52.5" stroke-width="2.5" stroke="rgba(235, 235, 235, 0.5)"></path><path d="M500 7.5 a2.5 2.5 0 1 0 5 0 a2.5 2.5 0 1 0 -5 0zM500 52.5 a2.5 2.5 0 1 0 5 0 a2.5 2.5 0 1 0 -5 0z" fill="rgba(235, 235, 235, 0.5)"></path><path d="M427.5 52.5L442.5 37.5L442.5 22.5" stroke-width="2.5" stroke="rgba(235, 235, 235, 0.5)"></path><path d="M425 52.5 a2.5 2.5 0 1 0 5 0 a2.5 2.5 0 1 0 -5 0zM440 22.5 a2.5 2.5 0 1 0 5 0 a2.5 2.5 0 1 0 -5 0z" fill="rgba(235, 235, 235, 0.5)"></path><path d="M592.5 172.5L577.5 187.5L562.5 187.5" stroke-width="2.5" stroke="rgba(235, 235, 235, 0.5)"></path><path d="M590 172.5 a2.5 2.5 0 1 0 5 0 a2.5 2.5 0 1 0 -5 0zM560 187.5 a2.5 2.5 0 1 0 5 0 a2.5 2.5 0 1 0 -5 0z" fill="rgba(235, 235, 235, 0.5)"></path><path d="M622.5 532.5L592.5 532.5" stroke-width="2.5" stroke="rgba(235, 235, 235, 0.5)"></path><path d="M620 532.5 a2.5 2.5 0 1 0 5 0 a2.5 2.5 0 1 0 -5 0zM590 532.5 a2.5 2.5 0 1 0 5 0 a2.5 2.5 0 1 0 -5 0z" fill="rgba(235, 235, 235, 0.5)"></path><path d="M577.5 547.5L562.5 532.5L547.5 532.5" stroke-width="2.5" stroke="rgba(235, 235, 235, 0.5)"></path><path d="M575 547.5 a2.5 2.5 0 1 0 5 0 a2.5 2.5 0 1 0 -5 0zM545 532.5 a2.5 2.5 0 1 0 5 0 a2.5 2.5 0 1 0 -5 0z" fill="rgba(235, 235, 235, 0.5)"></path><path d="M877.5 262.5L862.5 247.5L862.5 232.5" stroke-width="2.5" stroke="rgba(235, 235, 235, 0.5)"></path><path d="M875 262.5 a2.5 2.5 0 1 0 5 0 a2.5 2.5 0 1 0 -5 0zM860 232.5 a2.5 2.5 0 1 0 5 0 a2.5 2.5 0 1 0 -5 0z" fill="rgba(235, 235, 235, 0.5)"></path><path d="M607.5 202.5L607.5 217.5L592.5 232.5L577.5 232.5" stroke-width="2.5" stroke="rgba(235, 235, 235, 0.5)"></path><path d="M605 202.5 a2.5 2.5 0 1 0 5 0 a2.5 2.5 0 1 0 -5 0zM575 232.5 a2.5 2.5 0 1 0 5 0 a2.5 2.5 0 1 0 -5 0z" fill="rgba(235, 235, 235, 0.5)"></path><path d="M442.5 262.5L442.5 292.5" stroke-width="2.5" stroke="rgba(235, 235, 235, 0.5)"></path><path d="M440 262.5 a2.5 2.5 0 1 0 5 0 a2.5 2.5 0 1 0 -5 0zM440 292.5 a2.5 2.5 0 1 0 5 0 a2.5 2.5 0 1 0 -5 0z" fill="rgba(235, 235, 235, 0.5)"></path><path d="M1192.5 442.5L1207.5 427.5L1222.5 427.5" stroke-width="2.5" stroke="rgba(235, 235, 235, 0.5)"></path><path d="M1190 442.5 a2.5 2.5 0 1 0 5 0 a2.5 2.5 0 1 0 -5 0zM1220 427.5 a2.5 2.5 0 1 0 5 0 a2.5 2.5 0 1 0 -5 0z" fill="rgba(235, 235, 235, 0.5)"></path><path d="M1357.5 232.5L1342.5 247.5L1312.5 247.5" stroke-width="2.5" stroke="rgba(235, 235, 235, 0.5)"></path><path d="M1355 232.5 a2.5 2.5 0 1 0 5 0 a2.5 2.5 0 1 0 -5 0zM1310 247.5 a2.5 2.5 0 1 0 5 0 a2.5 2.5 0 1 0 -5 0z" fill="rgba(235, 235, 235, 0.5)"></path><path d="M577.5 52.5L592.5 67.5L592.5 82.5" stroke-width="2.5" stroke="rgba(235, 235, 235, 0.5)"></path><path d="M575 52.5 a2.5 2.5 0 1 0 5 0 a2.5 2.5 0 1 0 -5 0zM590 82.5 a2.5 2.5 0 1 0 5 0 a2.5 2.5 0 1 0 -5 0z" fill="rgba(235, 235, 235, 0.5)"></path><path d="M457.5 262.5L457.5 292.5" stroke-width="2.5" stroke="rgba(235, 235, 235, 0.5)"></path><path d="M455 262.5 a2.5 2.5 0 1 0 5 0 a2.5 2.5 0 1 0 -5 0zM455 292.5 a2.5 2.5 0 1 0 5 0 a2.5 2.5 0 1 0 -5 0z" fill="rgba(235, 235, 235, 0.5)"></path><path d="M1192.5 472.5L1192.5 457.5L1207.5 442.5" stroke-width="2.5" stroke="rgba(235, 235, 235, 0.5)"></path><path d="M1190 472.5 a2.5 2.5 0 1 0 5 0 a2.5 2.5 0 1 0 -5 0zM1205 442.5 a2.5 2.5 0 1 0 5 0 a2.5 2.5 0 1 0 -5 0z" fill="rgba(235, 235, 235, 0.5)"></path><path d="M322.5 427.5L322.5 412.5L307.5 397.5" stroke-width="2.5" stroke="rgba(235, 235, 235, 0.5)"></path><path d="M320 427.5 a2.5 2.5 0 1 0 5 0 a2.5 2.5 0 1 0 -5 0zM305 397.5 a2.5 2.5 0 1 0 5 0 a2.5 2.5 0 1 0 -5 0z" fill="rgba(235, 235, 235, 0.5)"></path><path d="M862.5 397.5L862.5 382.5L877.5 367.5" stroke-width="2.5" stroke="rgba(235, 235, 235, 0.5)"></path><path d="M860 397.5 a2.5 2.5 0 1 0 5 0 a2.5 2.5 0 1 0 -5 0zM875 367.5 a2.5 2.5 0 1 0 5 0 a2.5 2.5 0 1 0 -5 0z" fill="rgba(235, 235, 235, 0.5)"></path></g></g><defs><mask id="SvgjsMask1006"><rect width="1440" height="560" fill="#ffffff"></rect></mask></defs></svg>